<svg version="1.1" id="Layer_1" xmlns="http://www.w3.org/2000/svg" xmlns:xlink="http://www.w3.org/1999/xlink" x="0px" y="0px"
	 width="100%" viewBox="0 0 338 304" enable-background="new 0 0 338 304" xml:space="preserve">
<path fill="#020202" opacity="1.000000" stroke="none" 
	d="
M234.000000,305.000000 
	C156.000015,305.000000 78.500031,305.000000 1.000031,305.000000 
	C1.000021,203.666702 1.000021,102.333397 1.000010,1.000072 
	C113.666618,1.000048 226.333237,1.000048 338.999878,1.000024 
	C338.999939,102.333260 338.999939,203.666519 338.999969,304.999878 
	C304.166656,305.000000 269.333344,305.000000 234.000000,305.000000 
M97.002159,87.996651 
	C97.002159,87.996651 96.966293,87.951927 96.341370,88.129196 
	C95.620956,89.432327 94.900543,90.735458 93.729469,92.399757 
	C93.467621,92.896233 93.205765,93.392708 92.351822,94.194069 
	C90.209846,99.802544 88.067871,105.411018 85.667946,111.470139 
	C85.683258,111.809898 85.698563,112.149651 85.190948,113.041023 
	C84.954208,115.388000 84.717461,117.734970 84.245720,120.964737 
	C84.331062,124.616783 84.416397,128.268829 84.268234,132.682816 
	C84.736420,134.642944 85.204605,136.603058 85.538734,139.046570 
	C85.647499,139.355301 85.756271,139.664047 85.674980,140.567001 
	C88.067612,145.471451 90.460236,150.375916 92.968185,155.819748 
	C93.364021,156.192078 93.759850,156.564423 94.180008,157.610458 
	C98.757141,161.115051 103.334274,164.619629 107.942001,168.003677 
	C107.942001,168.003677 107.872734,168.106979 108.170578,168.704605 
	C112.797600,170.717972 117.424622,172.731354 122.470314,175.113052 
	C122.833199,175.155609 123.196083,175.198181 123.998886,175.805832 
	C135.012314,178.806198 146.025757,181.806549 157.616928,185.101471 
	C158.257645,185.152115 158.898346,185.202759 160.031219,185.799866 
	C162.922607,186.560532 165.845215,187.219910 168.699951,188.099487 
	C180.690536,191.793991 193.464066,193.344193 204.002823,200.988922 
	C204.002823,200.988922 204.072906,200.958054 204.101654,201.593826 
	C204.656052,202.207581 205.210449,202.821335 205.774261,203.993866 
	C205.961746,204.308304 206.149231,204.622726 206.242416,205.514313 
	C206.556595,205.993240 206.870773,206.472168 207.104416,207.620987 
	C207.192322,208.059570 207.280228,208.498169 207.142746,209.762741 
	C208.082840,216.835236 203.817566,221.070312 198.377975,224.983261 
	C198.377975,224.983261 198.069534,225.372879 197.374023,225.303024 
	C195.944992,225.974487 194.515961,226.645966 192.383713,227.307755 
	C191.954895,227.487167 191.526062,227.666595 190.315918,227.647934 
	C181.859451,228.192886 173.402969,228.737839 164.308334,229.055099 
	C163.861420,229.084381 163.414520,229.113663 162.299194,228.806412 
	C160.666458,228.515152 159.040070,228.180664 157.399979,227.939377 
	C142.512970,225.749222 133.282013,217.779465 131.238510,202.420609 
	C131.111053,201.462708 130.826904,200.525665 130.536636,199.224808 
	C114.677025,199.224808 98.922592,199.215820 83.168182,199.229492 
	C77.303452,199.234589 77.097977,199.548523 78.495819,206.196091 
	C78.626572,207.121552 78.757324,208.047012 78.612679,209.605316 
	C81.330215,235.149490 101.335861,257.622620 127.452049,264.260437 
	C127.801003,264.267242 128.149963,264.274048 129.011337,264.813965 
	C135.019852,265.919403 141.028381,267.024811 147.725220,268.398926 
	C149.190231,268.443970 150.655228,268.489014 152.741074,269.047241 
	C164.448334,268.872284 176.155579,268.697357 188.583588,268.692963 
	C190.044327,268.508179 191.505081,268.323395 193.611465,268.425537 
	C198.668488,267.468292 203.835617,266.893250 208.759644,265.474487 
	C219.119446,262.489594 229.388306,259.134460 237.856674,250.975739 
	C238.544434,250.250244 239.232193,249.524734 240.568237,248.771988 
	C241.646164,247.481476 242.724091,246.190979 243.927078,244.895004 
	C243.927078,244.895004 243.888397,244.775970 244.516113,244.616257 
	C252.950424,235.325211 258.384583,224.690735 259.388733,211.313004 
	C259.370819,210.399231 259.352905,209.485443 259.841248,207.998352 
	C259.668488,204.145508 259.495758,200.292679 259.454742,195.832596 
	C259.337830,195.230240 259.220917,194.627899 259.371277,193.415497 
	C256.948456,187.211929 254.525604,181.008362 252.102325,174.349442 
	C252.102325,174.349442 251.759369,174.049911 251.760208,173.412094 
	C250.891342,172.510788 250.022476,171.609467 248.984406,170.127762 
	C248.286148,169.434296 247.587891,168.740845 246.810928,167.381409 
	C242.516296,164.038300 238.221680,160.695190 233.654251,156.963303 
	C233.654251,156.963303 233.182846,156.905319 232.919983,156.283432 
	C219.543839,148.569336 205.136963,143.882935 189.299698,141.291321 
	C188.843109,141.292038 188.386520,141.292770 187.439926,140.757111 
	C184.282486,140.129776 181.125061,139.502441 177.541260,138.613663 
	C177.215286,138.632050 176.889297,138.650452 176.094040,138.099899 
	C172.725250,137.384552 169.356476,136.669189 165.517761,135.742126 
	C165.178558,135.734192 164.839340,135.726242 164.027435,135.163071 
	C160.993164,134.312958 157.924866,133.567261 154.931427,132.591827 
	C147.879272,130.293854 140.286179,128.804626 136.672195,120.404144 
	C136.509857,119.969139 136.347519,119.534134 136.393005,118.228165 
	C137.288483,114.503777 138.183975,110.779388 138.996475,107.019577 
	C138.996475,107.019577 139.061722,107.082008 139.705627,106.843796 
	C143.199509,104.733833 146.445419,101.787682 150.232010,100.664696 
	C163.653717,96.684250 177.022079,97.436371 190.297623,103.148293 
	C190.297623,103.148293 190.714783,103.152046 191.001587,103.748932 
	C192.292404,104.581444 193.583221,105.413956 194.977875,106.686867 
	C195.139252,106.978050 195.386246,107.130981 195.840378,107.865814 
	C197.784470,112.299843 199.603592,116.795761 201.749496,121.129868 
	C202.386108,122.415588 203.942184,123.246056 205.977356,124.529434 
	C221.294724,124.457611 236.612076,124.385780 252.410049,124.674011 
	C256.143372,124.064201 254.153030,121.860962 253.837540,119.408821 
	C253.731216,118.965080 253.624893,118.521339 253.731354,117.348167 
	C253.252945,115.723915 252.774536,114.099663 252.416977,111.973488 
	C252.304169,111.655083 252.191376,111.336678 252.311249,110.434624 
	C250.909103,106.557243 249.506973,102.679871 248.141891,98.371201 
	C248.141891,98.371201 247.881592,98.025314 247.954742,97.288513 
	C245.027039,92.749664 242.099350,88.210808 238.951797,83.103981 
	C238.211014,82.421669 237.470230,81.739365 236.698349,80.490929 
	C236.109726,80.098694 235.521103,79.706459 234.658783,78.755035 
	C233.849777,78.130051 233.040787,77.505074 232.085876,76.265633 
	C231.365143,75.906815 230.644424,75.547997 229.621414,74.698822 
	C229.119812,74.446274 228.618210,74.193718 227.895477,73.337616 
	C226.575348,72.662445 225.255219,71.987274 223.628601,70.941460 
	C223.628601,70.941460 223.147995,70.923553 222.823578,70.331955 
	C211.538498,64.463188 199.704788,60.468639 186.123520,59.545013 
	C185.044754,59.513294 183.965988,59.481575 182.247238,58.960304 
	C172.205017,59.115490 162.162781,59.270672 151.313782,59.270840 
	C150.241379,59.457108 149.168991,59.643379 147.330521,59.557144 
	C136.146622,61.466496 125.178856,63.977215 115.336372,70.932343 
	C115.336372,70.932343 115.060394,71.299744 114.383461,71.333656 
	C110.018906,75.243690 105.654358,79.153717 100.780823,83.310524 
	C100.461685,83.761642 100.142548,84.212761 99.169037,84.785522 
	C98.430328,85.846306 97.691620,86.907097 97.002159,87.996651 
z"/>
<path fill="#FBFBFB" opacity="1.000000" stroke="none" 
	d="
M159.539062,185.253387 
	C158.898346,185.202759 158.257645,185.152115 157.250488,184.590988 
	C153.014999,182.953278 149.169327,181.736618 145.271835,180.718201 
	C138.050201,178.831192 130.798279,177.060089 123.558968,175.240723 
	C123.196083,175.198181 122.833199,175.155609 122.210678,174.589355 
	C117.258278,172.079422 112.565506,170.093201 107.872734,168.106979 
	C107.872734,168.106979 107.942001,168.003677 107.912918,167.714996 
	C103.307793,163.929794 98.731735,160.433273 94.155678,156.936752 
	C93.759850,156.564423 93.364021,156.192078 92.958977,155.174591 
	C91.155617,149.970886 89.394302,145.398712 87.516418,140.874924 
	C87.329018,140.423492 86.432465,140.266449 85.865036,139.972778 
	C85.756271,139.664047 85.647499,139.355301 85.745483,138.393143 
	C85.468727,135.800110 84.985229,133.860489 84.501732,131.920883 
	C84.416397,128.268829 84.331062,124.616783 84.715622,120.377518 
	C85.361641,117.356667 85.537758,114.923042 85.713867,112.489410 
	C85.698563,112.149651 85.683258,111.809898 86.126205,111.080612 
	C88.704285,105.090454 90.824104,99.489822 92.943909,93.889191 
	C93.205765,93.392708 93.467621,92.896233 94.287933,92.180176 
	C95.553024,90.624367 96.259659,89.288147 96.966293,87.951927 
	C96.966293,87.951927 97.002159,87.996651 97.342545,87.979248 
	C98.396416,86.862526 99.109909,85.763199 99.823402,84.663872 
	C100.142548,84.212761 100.461685,83.761642 101.370888,83.183014 
	C106.327431,79.136909 110.693916,75.218330 115.060394,71.299744 
	C115.060394,71.299744 115.336372,70.932343 115.941132,70.962250 
	C120.510124,69.325195 124.399345,67.440910 128.455719,66.040947 
	C134.944366,63.801540 141.543915,61.883526 148.096588,59.829651 
	C149.168991,59.643379 150.241379,59.457108 152.042450,59.588215 
	C162.809814,59.753677 172.848526,59.601768 182.887222,59.449856 
	C183.965988,59.481575 185.044754,59.513294 186.699799,59.969254 
	C194.908600,62.334835 202.583862,64.125595 210.157318,66.275009 
	C214.571747,67.527863 218.823212,69.354874 223.147995,70.923553 
	C223.147995,70.923553 223.628601,70.941460 223.810974,71.474167 
	C225.367767,72.651634 226.742188,73.296402 228.116608,73.941162 
	C228.618210,74.193718 229.119812,74.446274 229.805603,75.281563 
	C230.737106,76.202896 231.484451,76.541496 232.231781,76.880096 
	C233.040787,77.505074 233.849777,78.130051 234.792038,79.328217 
	C235.526672,80.286621 236.128067,80.671837 236.729446,81.057060 
	C237.470230,81.739365 238.211014,82.421669 239.011963,83.758110 
	C242.008606,88.949936 244.945099,93.487625 247.881592,98.025314 
	C247.881592,98.025314 248.141891,98.371201 248.044724,98.991852 
	C249.324554,103.414429 250.701553,107.216354 252.078568,111.018272 
	C252.191376,111.336678 252.304169,111.655083 252.224152,112.618622 
	C252.527084,114.868370 253.022842,116.472984 253.518585,118.077599 
	C253.624893,118.521339 253.731216,118.965080 253.514160,119.964188 
	C252.770325,121.784355 252.349884,123.049156 251.929443,124.313957 
	C236.612076,124.385780 221.294724,124.457611 205.335999,124.076080 
	C203.799591,121.045334 203.245880,118.275047 201.925323,115.938095 
	C200.169296,112.830521 197.815704,110.060623 195.718826,107.145660 
	C195.386246,107.130981 195.139252,106.978050 194.936523,106.097191 
	C193.501724,104.722359 192.108246,103.937202 190.714783,103.152046 
	C190.714783,103.152046 190.297623,103.148293 190.124359,102.632484 
	C179.483521,94.400475 150.665726,95.074989 140.871628,103.790924 
	C139.990143,104.575363 139.652130,105.970490 139.061722,107.082008 
	C139.061722,107.082008 138.996475,107.019577 138.670242,107.052322 
	C135.307770,110.673477 133.494156,114.481583 136.185196,119.099129 
	C136.347519,119.534134 136.509857,119.969139 136.414612,120.989502 
	C136.521408,122.615257 136.620789,123.884247 137.290863,124.660873 
	C144.457794,132.967422 154.578812,134.115952 164.500137,135.718307 
	C164.839340,135.726242 165.178558,135.734192 165.938324,136.178223 
	C169.760361,137.299164 173.161850,137.984009 176.563324,138.668854 
	C176.889297,138.650452 177.215286,138.632050 177.915985,139.083618 
	C181.503784,140.133560 184.716858,140.713531 187.929932,141.293488 
	C188.386520,141.292770 188.843109,141.292038 189.733978,141.785797 
	C193.651657,143.222565 197.202835,143.969284 200.604172,145.148285 
	C207.432098,147.515121 214.169449,150.142029 220.961395,152.614273 
	C225.018341,154.090988 229.107925,155.477982 233.182846,156.905319 
	C233.182846,156.905319 233.654251,156.963303 233.809052,157.490112 
	C238.272446,161.360397 242.581039,164.703903 246.889618,168.047394 
	C247.587891,168.740845 248.286148,169.434296 249.014679,170.765442 
	C249.949753,172.285385 250.854568,173.167648 251.759369,174.049911 
	C251.759369,174.049911 252.102325,174.349442 252.044952,174.959564 
	C254.359726,181.721634 256.731873,187.873581 259.104004,194.025543 
	C259.220917,194.627899 259.337830,195.230240 259.237335,196.625244 
	C259.124939,201.135803 259.229950,204.853745 259.334961,208.571671 
	C259.352905,209.485443 259.370819,210.399231 258.963318,211.865143 
	C256.495850,218.631073 254.901962,225.042862 252.271835,230.996887 
	C250.117905,235.872864 246.729538,240.203552 243.888397,244.775970 
	C243.888397,244.775970 243.927078,244.895004 243.532684,244.906616 
	C242.065506,246.211884 240.992722,247.505554 239.919952,248.799225 
	C239.232193,249.524734 238.544434,250.250244 237.198563,251.003296 
	C225.743240,258.190247 214.374573,263.883636 201.274582,265.534760 
	C198.440613,265.891937 195.732117,267.244507 192.965820,268.138611 
	C191.505081,268.323395 190.044327,268.508179 187.892365,268.378204 
	C182.404938,268.057587 177.607773,267.988647 172.812729,268.060883 
	C165.914429,268.164734 159.017654,268.371338 152.120239,268.534088 
	C150.655228,268.489014 149.190231,268.443970 147.145477,267.953186 
	C140.543457,266.431885 134.521194,265.356354 128.498917,264.280823 
	C128.149963,264.274048 127.801003,264.267242 127.167656,263.756592 
	C126.546371,262.905823 126.271164,262.374725 125.863785,262.238281 
	C101.902863,254.214615 86.138184,238.666855 80.823479,213.422928 
	C80.497032,211.872345 79.547638,210.452927 78.888084,208.972473 
	C78.757324,208.047012 78.626572,207.121552 78.742424,205.461243 
	C79.235329,203.356415 79.481636,201.986420 79.629189,201.165695 
	C96.731041,201.165695 113.147232,201.165695 129.238815,201.165695 
	C130.307846,205.112793 131.146805,208.472458 132.129013,211.789703 
	C135.588898,223.474670 150.981903,230.594147 162.967606,229.142944 
	C163.414520,229.113663 163.861420,229.084381 164.736115,229.546021 
	C174.008362,231.674042 182.738724,231.960724 191.097244,227.846008 
	C191.526062,227.666595 191.954895,227.487167 192.950653,227.542389 
	C195.034912,226.975647 196.552216,226.174255 198.069534,225.372864 
	C198.069534,225.372879 198.377975,224.983261 198.996826,225.024017 
	C204.911057,223.543640 207.147369,219.376266 208.178650,214.527985 
	C208.546249,212.799896 207.674286,210.808151 207.368134,208.936752 
	C207.280228,208.498169 207.192322,208.059570 207.369156,207.138672 
	C207.201508,206.083282 206.769104,205.510208 206.336716,204.937149 
	C206.149231,204.622726 205.961746,204.308304 205.848297,203.362167 
	C205.305878,202.139664 204.689392,201.548859 204.072906,200.958054 
	C204.072906,200.958054 204.002823,200.988922 204.022278,200.602051 
	C202.292206,198.814529 200.751129,196.832443 198.755905,196.117065 
	C191.356171,193.463898 183.863571,191.025650 176.294632,188.903244 
	C170.800308,187.362579 165.130585,186.447433 159.539062,185.253387 
z"/>
<path fill="#D4D4D4" opacity="1.000000" stroke="none" 
	d="
M162.633392,228.974670 
	C150.981903,230.594147 135.588898,223.474670 132.129013,211.789703 
	C131.146805,208.472458 130.307846,205.112793 129.238815,201.165695 
	C113.147232,201.165695 96.731041,201.165695 79.629189,201.165695 
	C79.481636,201.986420 79.235329,203.356415 78.846268,205.123428 
	C77.097977,199.548523 77.303452,199.234589 83.168182,199.229492 
	C98.922592,199.215820 114.677025,199.224808 130.536636,199.224808 
	C130.826904,200.525665 131.111053,201.462708 131.238510,202.420609 
	C133.282013,217.779465 142.512970,225.749222 157.399979,227.939377 
	C159.040070,228.180664 160.666458,228.515152 162.633392,228.974670 
z"/>
<path fill="#D4D4D4" opacity="1.000000" stroke="none" 
	d="
M78.750381,209.288895 
	C79.547638,210.452927 80.497032,211.872345 80.823479,213.422928 
	C86.138184,238.666855 101.902863,254.214615 125.863785,262.238281 
	C126.271164,262.374725 126.546371,262.905823 126.945229,263.610779 
	C101.335861,257.622620 81.330215,235.149490 78.750381,209.288895 
z"/>
<path fill="#D4D4D4" opacity="1.000000" stroke="none" 
	d="
M139.383667,106.962906 
	C139.652130,105.970490 139.990143,104.575363 140.871628,103.790924 
	C150.665726,95.074989 179.483521,94.400475 189.994843,102.468979 
	C177.022079,97.436371 163.653717,96.684250 150.232010,100.664696 
	C146.445419,101.787682 143.199509,104.733833 139.383667,106.962906 
z"/>
<path fill="#D4D4D4" opacity="1.000000" stroke="none" 
	d="
M193.288635,268.282074 
	C195.732117,267.244507 198.440613,265.891937 201.274582,265.534760 
	C214.374573,263.883636 225.743240,258.190247 236.906433,251.086853 
	C229.388306,259.134460 219.119446,262.489594 208.759644,265.474487 
	C203.835617,266.893250 198.668488,267.468292 193.288635,268.282074 
z"/>
<path fill="#D4D4D4" opacity="1.000000" stroke="none" 
	d="
M233.051422,156.594376 
	C229.107925,155.477982 225.018341,154.090988 220.961395,152.614273 
	C214.169449,150.142029 207.432098,147.515121 200.604172,145.148285 
	C197.202835,143.969284 193.651657,143.222565 190.033661,141.958893 
	C205.136963,143.882935 219.543839,148.569336 233.051422,156.594376 
z"/>
<path fill="#D4D4D4" opacity="1.000000" stroke="none" 
	d="
M159.785141,185.526627 
	C165.130585,186.447433 170.800308,187.362579 176.294632,188.903244 
	C183.863571,191.025650 191.356171,193.463898 198.755905,196.117065 
	C200.751129,196.832443 202.292206,198.814529 204.043213,200.569977 
	C193.464066,193.344193 180.690536,191.793991 168.699951,188.099487 
	C165.845215,187.219910 162.922607,186.560532 159.785141,185.526627 
z"/>
<path fill="#D4D4D4" opacity="1.000000" stroke="none" 
	d="
M152.430664,268.790649 
	C159.017654,268.371338 165.914429,268.164734 172.812729,268.060883 
	C177.607773,267.988647 182.404938,268.057587 187.531998,268.292938 
	C176.155579,268.697357 164.448334,268.872284 152.430664,268.790649 
z"/>
<path fill="#D4D4D4" opacity="1.000000" stroke="none" 
	d="
M244.202271,244.696121 
	C246.729538,240.203552 250.117905,235.872864 252.271835,230.996887 
	C254.901962,225.042862 256.495850,218.631073 258.838318,212.188965 
	C258.384583,224.690735 252.950424,235.325211 244.202271,244.696121 
z"/>
<path fill="#D4D4D4" opacity="1.000000" stroke="none" 
	d="
M222.985779,70.627754 
	C218.823212,69.354874 214.571747,67.527863 210.157318,66.275009 
	C202.583862,64.125595 194.908600,62.334835 187.084717,60.103832 
	C199.704788,60.468639 211.538498,64.463188 222.985779,70.627754 
z"/>
<path fill="#D4D4D4" opacity="1.000000" stroke="none" 
	d="
M147.713562,59.693398 
	C141.543915,61.883526 134.944366,63.801540 128.455719,66.040947 
	C124.399345,67.440910 120.510124,69.325195 116.170013,70.942184 
	C125.178856,63.977215 136.146622,61.466496 147.713562,59.693398 
z"/>
<path fill="#D4D4D4" opacity="1.000000" stroke="none" 
	d="
M123.778931,175.523285 
	C130.798279,177.060089 138.050201,178.831192 145.271835,180.718201 
	C149.169327,181.736618 153.014999,182.953278 156.961609,184.443695 
	C146.025757,181.806549 135.012314,178.806198 123.778931,175.523285 
z"/>
<path fill="#D4D4D4" opacity="1.000000" stroke="none" 
	d="
M182.567230,59.205082 
	C172.848526,59.601768 162.809814,59.753677 152.445831,59.665726 
	C162.162781,59.270672 172.205017,59.115490 182.567230,59.205082 
z"/>
<path fill="#D4D4D4" opacity="1.000000" stroke="none" 
	d="
M164.263794,135.440689 
	C154.578812,134.115952 144.457794,132.967422 137.290863,124.660873 
	C136.620789,123.884247 136.521408,122.615257 136.380615,121.341629 
	C140.286179,128.804626 147.879272,130.293854 154.931427,132.591827 
	C157.924866,133.567261 160.993164,134.312958 164.263794,135.440689 
z"/>
<path fill="#D4D4D4" opacity="1.000000" stroke="none" 
	d="
M190.706573,227.746979 
	C182.738724,231.960724 174.008362,231.674042 165.055206,229.659882 
	C173.402969,228.737839 181.859451,228.192886 190.706573,227.746979 
z"/>
<path fill="#D4D4D4" opacity="1.000000" stroke="none" 
	d="
M195.779602,107.505737 
	C197.815704,110.060623 200.169296,112.830521 201.925323,115.938095 
	C203.245880,118.275047 203.799591,121.045334 204.885803,123.953926 
	C203.942184,123.246056 202.386108,122.415588 201.749496,121.129868 
	C199.603592,116.795761 197.784470,112.299843 195.779602,107.505737 
z"/>
<path fill="#D4D4D4" opacity="1.000000" stroke="none" 
	d="
M207.255447,209.349747 
	C207.674286,210.808151 208.546249,212.799896 208.178650,214.527985 
	C207.147369,219.376266 204.911057,223.543640 199.244110,224.999817 
	C203.817566,221.070312 208.082840,216.835236 207.255447,209.349747 
z"/>
<path fill="#D4D4D4" opacity="1.000000" stroke="none" 
	d="
M259.237640,193.720520 
	C256.731873,187.873581 254.359726,181.721634 252.045166,175.187225 
	C254.525604,181.008362 256.948456,187.211929 259.237640,193.720520 
z"/>
<path fill="#D4D4D4" opacity="1.000000" stroke="none" 
	d="
M114.721924,71.316696 
	C110.693916,75.218330 106.327431,79.136909 101.625381,83.059616 
	C105.654358,79.153717 110.018906,75.243690 114.721924,71.316696 
z"/>
<path fill="#D4D4D4" opacity="1.000000" stroke="none" 
	d="
M92.647873,94.041626 
	C90.824104,99.489822 88.704285,105.090454 86.255188,110.855293 
	C88.067871,105.411018 90.209846,99.802544 92.647873,94.041626 
z"/>
<path fill="#D4D4D4" opacity="1.000000" stroke="none" 
	d="
M94.167847,157.273605 
	C98.731735,160.433273 103.307793,163.929794 107.897629,167.775269 
	C103.334274,164.619629 98.757141,161.115051 94.167847,157.273605 
z"/>
<path fill="#D4D4D4" opacity="1.000000" stroke="none" 
	d="
M128.755127,264.547394 
	C134.521194,265.356354 140.543457,266.431885 146.801315,267.818817 
	C141.028381,267.024811 135.019852,265.919403 128.755127,264.547394 
z"/>
<path fill="#D4D4D4" opacity="1.000000" stroke="none" 
	d="
M85.770004,140.269897 
	C86.432465,140.266449 87.329018,140.423492 87.516418,140.874924 
	C89.394302,145.398712 91.155617,149.970886 92.901314,154.904907 
	C90.460236,150.375916 88.067612,145.471451 85.770004,140.269897 
z"/>
<path fill="#D4D4D4" opacity="1.000000" stroke="none" 
	d="
M246.850281,167.714401 
	C242.581039,164.703903 238.272446,161.360397 233.945465,157.684494 
	C238.221680,160.695190 242.516296,164.038300 246.850281,167.714401 
z"/>
<path fill="#D4D4D4" opacity="1.000000" stroke="none" 
	d="
M247.918167,97.656914 
	C244.945099,93.487625 242.008606,88.949936 239.121887,84.042099 
	C242.099350,88.210808 245.027039,92.749664 247.918167,97.656914 
z"/>
<path fill="#D4D4D4" opacity="1.000000" stroke="none" 
	d="
M108.021652,168.405792 
	C112.565506,170.093201 117.258278,172.079422 122.001343,174.405182 
	C117.424622,172.731354 112.797600,170.717972 108.021652,168.405792 
z"/>
<path fill="#D4D4D4" opacity="1.000000" stroke="none" 
	d="
M252.194916,110.726448 
	C250.701553,107.216354 249.324554,103.414429 248.026199,99.207504 
	C249.506973,102.679871 250.909103,106.557243 252.194916,110.726448 
z"/>
<path fill="#D4D4D4" opacity="1.000000" stroke="none" 
	d="
M136.289093,118.663651 
	C133.494156,114.481583 135.307770,110.673477 138.711731,107.070038 
	C138.183975,110.779388 137.288483,114.503777 136.289093,118.663651 
z"/>
<path fill="#D4D4D4" opacity="1.000000" stroke="none" 
	d="
M187.684937,141.025299 
	C184.716858,140.713531 181.503784,140.133560 178.129166,139.214340 
	C181.125061,139.502441 184.282486,140.129776 187.684937,141.025299 
z"/>
<path fill="#D4D4D4" opacity="1.000000" stroke="none" 
	d="
M259.588104,208.285004 
	C259.229950,204.853745 259.124939,201.135803 259.171448,196.928864 
	C259.495758,200.292679 259.668488,204.145508 259.588104,208.285004 
z"/>
<path fill="#D4D4D4" opacity="1.000000" stroke="none" 
	d="
M176.328674,138.384369 
	C173.161850,137.984009 169.760361,137.299164 166.173279,136.284088 
	C169.356476,136.669189 172.725250,137.384552 176.328674,138.384369 
z"/>
<path fill="#D4D4D4" opacity="1.000000" stroke="none" 
	d="
M85.452408,112.765213 
	C85.537758,114.923042 85.361641,117.356667 84.833122,119.936127 
	C84.717461,117.734970 84.954208,115.388000 85.452408,112.765213 
z"/>
<path fill="#D4D4D4" opacity="1.000000" stroke="none" 
	d="
M252.169739,124.493988 
	C252.349884,123.049156 252.770325,121.784355 253.439545,120.301003 
	C254.153030,121.860962 256.143372,124.064201 252.169739,124.493988 
z"/>
<path fill="#D4D4D4" opacity="1.000000" stroke="none" 
	d="
M84.384979,132.301849 
	C84.985229,133.860489 85.468727,135.800110 85.812515,138.151459 
	C85.204605,136.603058 84.736420,134.642944 84.384979,132.301849 
z"/>
<path fill="#D4D4D4" opacity="1.000000" stroke="none" 
	d="
M253.624969,117.712883 
	C253.022842,116.472984 252.527084,114.868370 252.163727,112.869591 
	C252.774536,114.099663 253.252945,115.723915 253.624969,117.712883 
z"/>
<path fill="#D4D4D4" opacity="1.000000" stroke="none" 
	d="
M197.721771,225.337952 
	C196.552216,226.174255 195.034912,226.975647 193.302277,227.547241 
	C194.515961,226.645966 195.944992,225.974487 197.721771,225.337952 
z"/>
<path fill="#D4D4D4" opacity="1.000000" stroke="none" 
	d="
M240.244080,248.785614 
	C240.992722,247.505554 242.065506,246.211884 243.470154,244.909332 
	C242.724091,246.190979 241.646164,247.481476 240.244080,248.785614 
z"/>
<path fill="#D4D4D4" opacity="1.000000" stroke="none" 
	d="
M228.006042,73.639389 
	C226.742188,73.296402 225.367767,72.651634 223.964218,71.659485 
	C225.255219,71.987274 226.575348,72.662445 228.006042,73.639389 
z"/>
<path fill="#D4D4D4" opacity="1.000000" stroke="none" 
	d="
M96.653831,88.040558 
	C96.259659,89.288147 95.553024,90.624367 94.513268,91.999588 
	C94.900543,90.735458 95.620956,89.432327 96.653831,88.040558 
z"/>
<path fill="#D4D4D4" opacity="1.000000" stroke="none" 
	d="
M190.858185,103.450485 
	C192.108246,103.937202 193.501724,104.722359 194.884613,105.876991 
	C193.583221,105.413956 192.292404,104.581444 190.858185,103.450485 
z"/>
<path fill="#D4D4D4" opacity="1.000000" stroke="none" 
	d="
M99.496216,84.724701 
	C99.109909,85.763199 98.396416,86.862526 97.317917,87.964867 
	C97.691620,86.907097 98.430328,85.846306 99.496216,84.724701 
z"/>
<path fill="#D4D4D4" opacity="1.000000" stroke="none" 
	d="
M251.759796,173.731003 
	C250.854568,173.167648 249.949753,172.285385 249.099274,171.055634 
	C250.022476,171.609467 250.891342,172.510788 251.759796,173.731003 
z"/>
<path fill="#D4D4D4" opacity="1.000000" stroke="none" 
	d="
M204.087280,201.275940 
	C204.689392,201.548859 205.305878,202.139664 205.843597,203.082779 
	C205.210449,202.821335 204.656052,202.207581 204.087280,201.275940 
z"/>
<path fill="#D4D4D4" opacity="1.000000" stroke="none" 
	d="
M206.289566,205.225739 
	C206.769104,205.510208 207.201508,206.083282 207.409424,206.803711 
	C206.870773,206.472168 206.556595,205.993240 206.289566,205.225739 
z"/>
<path fill="#D4D4D4" opacity="1.000000" stroke="none" 
	d="
M236.713898,80.773994 
	C236.128067,80.671837 235.526672,80.286621 234.928894,79.607811 
	C235.521103,79.706459 236.109726,80.098694 236.713898,80.773994 
z"/>
<path fill="#D4D4D4" opacity="1.000000" stroke="none" 
	d="
M232.158829,76.572861 
	C231.484451,76.541496 230.737106,76.202896 229.956726,75.526741 
	C230.644424,75.547997 231.365143,75.906815 232.158829,76.572861 
z"/>
</svg>