<?xml version="1.0" encoding="UTF-8"?>
<svg version="1.1" xmlns="http://www.w3.org/2000/svg" width="228" height="224">
<path d="M0 0 C75.24 0 150.48 0 228 0 C228 73.92 228 147.84 228 224 C152.76 224 77.52 224 0 224 C0 150.08 0 76.16 0 0 Z " fill="#010101" transform="translate(0,0)"/>
<path d="M0 0 C0 0.66 0 1.32 0 2 C0.72703125 2.06445312 1.4540625 2.12890625 2.203125 2.1953125 C5.88118759 3.25352604 7.26566223 4.99883715 9.75 7.875 C10.91789062 9.20144531 10.91789062 9.20144531 12.109375 10.5546875 C15.92559085 15.49053693 15.56880781 21.01515259 15 27 C11.38742246 39.65552642 -1.19624526 49.4682732 -10.91601562 57.5390625 C-11.51220703 58.04179687 -12.10839844 58.54453125 -12.72265625 59.0625 C-13.25640869 59.50722656 -13.79016113 59.95195312 -14.34008789 60.41015625 C-16.43124872 62.41304481 -18.1911312 64.73891401 -20 67 C-8.12 67 3.76 67 16 67 C16 71.29 16 75.58 16 80 C-3.47 80 -22.94 80 -43 80 C-43 68 -43 68 -40.28125 64.29296875 C-39.0492411 63.22415973 -37.78658735 62.18994283 -36.5 61.1875 C-35.12272711 60.01155273 -33.7464595 58.83442726 -32.37109375 57.65625 C-31.6529248 57.06070313 -30.93475586 56.46515625 -30.19482422 55.8515625 C-26.5301558 52.76003354 -23.05117673 49.47467664 -19.5625 46.1875 C-18.89017334 45.55835693 -18.21784668 44.92921387 -17.52514648 44.28100586 C-7.46053118 35.82225171 -7.46053118 35.82225171 -2.90234375 24.30078125 C-2.91394531 23.31464844 -2.92554688 22.32851562 -2.9375 21.3125 C-2.94652344 20.31863281 -2.95554688 19.32476562 -2.96484375 18.30078125 C-2.97644531 17.54152344 -2.98804688 16.78226563 -3 16 C-3.99 15.67 -4.98 15.34 -6 15 C-6.45761719 14.49339844 -6.91523437 13.98679687 -7.38671875 13.46484375 C-10.11168105 10.99060438 -12.97100091 11.53060645 -16.4921875 11.6640625 C-20.35134776 12.18102166 -22.24740019 13.24740019 -25 16 C-26.35143056 18.98547967 -27.15537536 21.80919581 -28 25 C-33.28 25 -38.56 25 -44 25 C-43.49639648 15.68333491 -41.5677413 11.28935424 -34.75 4.8125 C-25.07389336 -3.36295036 -11.83590422 -4.62743296 0 0 Z " fill="#F2F2F2" transform="translate(125,75)"/>
<path d="M0 0 C5.94 0 11.88 0 18 0 C18 26.73 18 53.46 18 81 C12.39 81 6.78 81 1 81 C0.505 49.32 0.505 49.32 0 17 C-4.95 20.3 -9.9 23.6 -15 27 C-16.65 27.66 -18.3 28.32 -20 29 C-20.13526139 26.75165504 -20.23210804 24.50097486 -20.3125 22.25 C-20.39951172 20.37054688 -20.39951172 20.37054688 -20.48828125 18.453125 C-20 15 -20 15 -17.65625 12.625 C-15.14988738 11.09169581 -12.77572145 9.95167593 -10 9 C-10 8.34 -10 7.68 -10 7 C-8.06640625 5.52734375 -8.06640625 5.52734375 -5.5625 3.9375 C-2.6281857 2.16321108 -2.6281857 2.16321108 0 0 Z " fill="#FBFBFB" transform="translate(170,74)"/>
<path d="M0 0 C0 26.4 0 52.8 0 80 C-5.28 80 -10.56 80 -16 80 C-16 58.88 -16 37.76 -16 16 C-21.70232416 19.25847095 -27.02939642 22.68018725 -32.42578125 26.390625 C-35 28 -35 28 -37 28 C-37.13526139 25.75165504 -37.23210804 23.50097486 -37.3125 21.25 C-37.39951172 19.37054688 -37.39951172 19.37054688 -37.48828125 17.453125 C-37 14 -37 14 -34.7890625 11.76953125 C-33.86867188 11.18558594 -32.94828125 10.60164063 -32 10 C-31.18660156 9.40058594 -30.37320313 8.80117187 -29.53515625 8.18359375 C-28.71917969 7.60738281 -27.90320312 7.03117187 -27.0625 6.4375 C-26.24910156 5.85871094 -25.43570313 5.27992187 -24.59765625 4.68359375 C-15.21192243 -1.39949088 -13.18135077 0 0 0 Z " fill="#F9F9F9" transform="translate(64,75)"/>
<path d="M0 0 C5.94 0 11.88 0 18 0 C18 26.73 18 53.46 18 81 C12.39 81 6.78 81 1 81 C1 80.67 1 80.34 1 80 C5.95 80 10.9 80 16 80 C16 54.26 16 28.52 16 2 C10.06 2.33 4.12 2.66 -2 3 C-1.34 2.01 -0.68 1.02 0 0 Z " fill="#B9B9B9" transform="translate(170,74)"/>
<path d="M0 0 C0 3 0 3 -4 8 C11.84 8.495 11.84 8.495 28 9 C28 9.33 28 9.66 28 10 C16.12 10 4.24 10 -8 10 C-5.77502475 5.55004949 -3.55366005 3.39915309 0 0 Z " fill="#626363" transform="translate(113,132)"/>
<path d="M0 0 C0.66 0.33 1.32 0.66 2 1 C0.90344712 2.31886772 -0.20253423 3.62990057 -1.3125 4.9375 C-1.92738281 5.66839844 -2.54226562 6.39929688 -3.17578125 7.15234375 C-5 9 -5 9 -8 10 C-6.34908222 5.70761377 -3.26245434 3.1206085 0 0 Z " fill="#CCCCCC" transform="translate(92,78)"/>
<path d="M0 0 C0 4.31618166 -2.13270348 5.92789659 -5 9 C-5.66 9 -6.32 9 -7 9 C-5.44499019 5.18315774 -2.96404505 2.80804268 0 0 Z " fill="#373737" transform="translate(113,132)"/>
</svg>
