<?xml version="1.0" encoding="UTF-8"?>
<svg version="1.1" xmlns="http://www.w3.org/2000/svg" width="304" height="268">
<path d="M0 0 C100.32 0 200.64 0 304 0 C304 88.44 304 176.88 304 268 C203.68 268 103.36 268 0 268 C0 179.56 0 91.12 0 0 Z " fill="#FAF5F4" transform="translate(0,0)"/>
<path d="M0 0 C100.32 0 200.64 0 304 0 C304 88.44 304 176.88 304 268 C203.68 268 103.36 268 0 268 C0 179.56 0 91.12 0 0 Z M105 17 C104.0203125 17.34675781 103.040625 17.69351562 102.03125 18.05078125 C73.67236496 28.90924907 50.28233035 53.31298893 37.69873047 80.51220703 C30.97182315 95.80505731 27.59741274 111.72660829 27.75 128.4375 C27.75821777 129.53860107 27.76643555 130.63970215 27.77490234 131.77416992 C28.0227762 149.76634723 32.40639505 166.70045347 40 183 C41.33333333 186 42.66666667 189 44 192 C44.66 192 45.32 192 46 192 C46.20625 192.66 46.4125 193.32 46.625 194 C50.32581714 202.07451013 57.00637577 208.5753961 63 215 C63.68835937 215.75410156 64.37671875 216.50820312 65.0859375 217.28515625 C73.83771121 226.50867985 84.36644052 233.8805277 96 239 C96.62156982 239.2997876 97.24313965 239.5995752 97.88354492 239.90844727 C103.98640527 242.77969775 110.1553896 244.55764744 116.6875 246.1875 C117.69361328 246.44724609 118.69972656 246.70699219 119.73632812 246.97460938 C151.72518941 255.13524834 183.96029346 248.58086106 212.1796875 232.1484375 C219.85642417 227.09736729 226.41265516 221.3568838 233 215 C233.65742188 214.39414063 234.31484375 213.78828125 234.9921875 213.1640625 C240.21479841 208.23025956 247.81610929 200.77610703 249.5703125 193.69921875 C249.71210938 193.13847656 249.85390625 192.57773438 250 192 C250.99 191.67 251.98 191.34 253 191 C254.21212774 188.77977039 254.21212774 188.77977039 255.125 186.125 C255.45757812 185.24070313 255.79015625 184.35640625 256.1328125 183.4453125 C256.77416325 181.63681895 257.39320681 179.82037956 258 178 C258.66 178 259.32 178 260 178 C261.60759143 173.63653755 262.56745831 169.3279978 263.4296875 164.77734375 C264.23406069 160.86015649 265.27176867 157.01154892 266.31640625 153.15234375 C268.07324804 145.05079335 268.18248872 136.95110357 268.1875 128.6875 C268.19974609 127.63626953 268.21199219 126.58503906 268.22460938 125.50195312 C268.24590494 113.95265601 266.1491445 103.50519246 262.5625 92.5625 C262.11293945 91.13260742 262.11293945 91.13260742 261.65429688 89.67382812 C260.17028082 85.06726202 258.62969454 81.08829845 256 77 C255.29230469 75.30810547 255.29230469 75.30810547 254.5703125 73.58203125 C250.15208345 63.50363315 242.5529249 54.86927777 235 47 C234.29230469 46.24074219 233.58460938 45.48148438 232.85546875 44.69921875 C222.85524586 33.99563687 222.85524586 33.99563687 210 28 C210 27.34 210 26.68 210 26 C209.45472656 25.75765625 208.90945312 25.5153125 208.34765625 25.265625 C201 22 201 22 199.02685547 21.07666016 C193.4654854 18.51448812 187.87530519 16.58335797 182 14.875 C181.16210938 14.62363281 180.32421875 14.37226563 179.4609375 14.11328125 C176.98101757 13.38005415 174.49470992 12.68108344 172 12 C171.27603027 11.79769775 170.55206055 11.59539551 169.80615234 11.38696289 C163.42684103 9.76939821 157.18271821 9.65454421 150.625 9.6875 C148.91340698 9.69378418 148.91340698 9.69378418 147.16723633 9.70019531 C132.5955633 9.89218316 118.72950974 11.995955 105 17 Z " fill="#FEFEFE" transform="translate(0,0)"/>
<path d="M0 0 C37.29 0 74.58 0 113 0 C113.0825 13.633125 113.165 27.26625 113.25 41.3125 C113.28641602 45.59774658 113.32283203 49.88299316 113.36035156 54.2980957 C113.37841797 59.58044434 113.37841797 59.58044434 113.3817749 62.06291199 C113.38786817 63.77580436 113.40183347 65.48868089 113.42230225 67.20146179 C113.53555922 77.18841423 113.52974785 85.8344005 109 95 C108.505 96.06992188 108.01 97.13984375 107.5 98.2421875 C98.41748877 114.18388689 85.0351482 125.38672307 69 134 C68.34 134 67.68 134 67 134 C67 134.66 67 135.32 67 136 C62.44133623 138.4139381 58.26835277 140.40914586 53.0546875 139.46875 C32.89411337 131.51204341 13.57152352 114.35112364 4 95 C2.81478028 92.03695071 1.8484257 89.07391157 1 86 C0.67 85.01 0.34 84.02 0 83 C-0.09116465 80.33773992 -0.126017 77.70232443 -0.11352539 75.0402832 C-0.11364593 74.21721019 -0.11376646 73.39413717 -0.11389065 72.54612255 C-0.11314407 69.88098133 -0.10552738 67.21590997 -0.09765625 64.55078125 C-0.09618604 62.90572137 -0.09516582 61.26066103 -0.09460449 59.61560059 C-0.08936073 53.51455993 -0.07539955 47.41352928 -0.0625 41.3125 C-0.041875 27.679375 -0.02125 14.04625 0 0 Z " fill="#A83936" transform="translate(92,71)"/>
<path d="M0 0 C1.05445313 -0.00322266 2.10890625 -0.00644531 3.1953125 -0.00976562 C24.09585602 0.13250293 43.80176322 8.4788269 59.375 22.3125 C59.99890625 22.86550781 60.6228125 23.41851562 61.265625 23.98828125 C68.20610418 30.53796768 74.0180941 38.36075092 77.375 47.3125 C78.60448815 49.87359325 79.8409464 52.4306922 81.09375 54.98046875 C84.60884264 64.12185297 85.88463656 72.86879346 85.75 82.625 C85.73767334 83.72021973 85.72534668 84.81543945 85.71264648 85.94384766 C85.26438012 107.67592974 77.63793537 125.98456052 63.375 142.3125 C62.53582031 143.31796875 62.53582031 143.31796875 61.6796875 144.34375 C49.14126843 158.20531882 27.81983539 167.36738004 9.50244141 168.48828125 C-7.54573373 169.23077449 -20.78790017 167.792135 -36.0234375 159.671875 C-38.72676473 158.18858471 -38.72676473 158.18858471 -42.1875 157 C-47.67766419 154.30482849 -52.04696311 150.3267727 -56.625 146.3125 C-57.26695313 145.76722656 -57.90890625 145.22195312 -58.5703125 144.66015625 C-72.24506533 132.1620682 -81.7939656 110.94678017 -82.76733398 92.63476562 C-83.32016555 75.450566 -82.17998858 62.30536937 -73.98828125 46.91796875 C-72.49924435 44.19820751 -72.49924435 44.19820751 -71.25 40.6875 C-64.55311113 26.77857696 -49.98427635 13.69722863 -35.625 8.3125 C-33.06390675 7.08301185 -30.5068078 5.8465536 -27.95703125 4.59375 C-18.67573704 1.02485844 -9.89879555 -0.15238294 0 0 Z M-54.625 25.3125 C-54.686875 38.821875 -54.74875 52.33125 -54.8125 66.25 C-54.83981201 70.50124756 -54.86712402 74.75249512 -54.89526367 79.13256836 C-54.90530261 82.97375889 -54.90530261 82.97375889 -54.91133118 86.81495667 C-54.91591042 88.51375187 -54.92640417 90.21253787 -54.94172668 91.91127014 C-54.96387602 94.49822694 -54.96671175 97.08459263 -54.96557617 99.67163086 C-54.9763705 100.41682197 -54.98716482 101.16201307 -54.99828625 101.92978573 C-54.90938106 117.18966348 -45.49285113 131.35859425 -35.125 141.83984375 C-28.45221274 148.13437708 -21.30219937 153.33048764 -13.625 158.3125 C-12.944375 158.7559375 -12.26375 159.199375 -11.5625 159.65625 C-9.96781463 160.63077995 -8.2965813 161.47670935 -6.625 162.3125 C-5.94308594 162.65539062 -5.26117188 162.99828125 -4.55859375 163.3515625 C0.27771283 165.42066062 3.0061841 165.47113333 7.9375 163.5 C9.42981485 162.79813502 10.91427118 162.0779341 12.375 161.3125 C12.375 160.6525 12.375 159.9925 12.375 159.3125 C13.10460937 159.03535156 13.83421875 158.75820312 14.5859375 158.47265625 C32.77756742 150.90554969 46.9496134 135.83044182 55.375 118.3125 C57.80070642 112.30762494 58.80790858 107.03417893 58.71557617 100.57983398 C58.71611858 99.32927137 58.71611858 99.32927137 58.71667194 98.05344486 C58.71445515 95.38823933 58.69171396 92.7236848 58.66796875 90.05859375 C58.66355094 88.39978335 58.6604947 86.74096875 58.65881348 85.08215332 C58.64316541 78.97137125 58.60128162 72.86067905 58.5625 66.75 C58.500625 53.075625 58.43875 39.40125 58.375 25.3125 C21.085 25.3125 -16.205 25.3125 -54.625 25.3125 Z " fill="#FCFAFA" transform="translate(146.625,45.6875)"/>
<path d="M0 0 C33.99 0 67.98 0 103 0 C103 12.87 103 25.74 103 39 C69.01 39 35.02 39 0 39 C0 26.13 0 13.26 0 0 Z " fill="#F9F1F1" transform="translate(97,76)"/>
<path d="M0 0 C1.46347974 0.44681745 2.92701976 0.89343755 4.390625 1.33984375 C9.95618535 3.08916922 15.03175293 4.89067759 20 8 C21.25775336 8.59116841 22.52742244 9.15835042 23.8125 9.6875 C25.3903125 10.3371875 25.3903125 10.3371875 27 11 C27 11.66 27 12.32 27 13 C27.99 13.309375 27.99 13.309375 29 13.625 C37.07768241 17.32727111 43.56796507 24.01016747 50 30 C51.11375 30.99773438 51.11375 30.99773438 52.25 32.015625 C61.47941683 40.65172218 68.66236024 51.58330633 74 63 C74.50684326 64.04595337 74.50684326 64.04595337 75.02392578 65.11303711 C77.76096566 70.95478865 79.54724343 76.89628545 81.1875 83.125 C81.44724609 84.07503906 81.70699219 85.02507812 81.97460938 86.00390625 C87.19916395 105.4711096 87.99768272 131.08111189 80 150 C79.66073053 152.33247761 79.32759934 154.66585471 79 157 C78.37743972 159.01416562 77.72433347 161.02015519 77 163 C76.34 163 75.68 163 75 163 C74.62875 163.9590625 74.62875 163.9590625 74.25 164.9375 C72.59188428 168.99988351 70.7964416 172.99724906 69 177 C68.34 177 67.68 177 67 177 C66.79375 177.66 66.5875 178.32 66.375 179 C62.67286031 187.07739569 55.98960881 193.56785996 50 200 C49.37351563 200.69222656 48.74703125 201.38445312 48.1015625 202.09765625 C37.0240403 213.85291715 22.57615013 221.03199173 7.89501953 227.20117188 C6.31886284 227.86558629 4.75020659 228.54775966 3.18359375 229.234375 C-19.82278523 238.59534297 -46.70663519 236.83738142 -70 230 C-71.22074219 229.67773438 -72.44148438 229.35546875 -73.69921875 229.0234375 C-91.11629585 224.19119657 -105.01004345 214.29293449 -118 202 C-118.76183594 201.29101562 -119.52367187 200.58203125 -120.30859375 199.8515625 C-135.78506322 184.99200603 -135.78506322 184.99200603 -137 177 C-137.66 177 -138.32 177 -139 177 C-140.33333333 174 -141.66666667 171 -143 168 C-143.30470215 167.34596191 -143.6094043 166.69192383 -143.92333984 166.01806641 C-151.65708852 149.17970391 -155.11229954 131.8880121 -155.25 113.4375 C-155.25950684 112.39634033 -155.26901367 111.35518066 -155.27880859 110.2824707 C-155.14106942 77.90611351 -140.23699807 49.67207907 -117.72363281 27.23071289 C-102.370834 12.41857631 -84.07844368 2.78783373 -63.375 -2.1875 C-62.68253174 -2.35459473 -61.99006348 -2.52168945 -61.27661133 -2.69384766 C-40.94111202 -7.36132664 -19.77744672 -6.32860992 0 0 Z M-77 6 C-77.79921875 6.34289062 -78.5984375 6.68578125 -79.421875 7.0390625 C-80.94188757 7.70725595 -82.45657008 8.38774655 -83.96484375 9.08203125 C-85.71820102 9.87289297 -87.51290129 10.57090615 -89.3125 11.25 C-100.08157421 15.91494459 -108.67477083 23.96424333 -117 32 C-117.79277344 32.72960938 -118.58554688 33.45921875 -119.40234375 34.2109375 C-130.94377917 45.12357767 -138.51735713 58.23250992 -144 73 C-144.36480469 73.93585938 -144.72960937 74.87171875 -145.10546875 75.8359375 C-148.94689889 85.87369748 -151.47920618 96.24713938 -152 107 C-152.06445312 108.11117187 -152.12890625 109.22234375 -152.1953125 110.3671875 C-153.08405908 139.34032602 -143.68666084 169.4709593 -123.8671875 190.984375 C-122.91211144 191.99020389 -121.95636606 192.99539759 -121 194 C-120.25411621 194.81307617 -120.25411621 194.81307617 -119.49316406 195.64257812 C-109.46430595 206.56359333 -98.0222914 215.73862388 -84 221 C-83.07574219 221.38414062 -82.15148437 221.76828125 -81.19921875 222.1640625 C-69.21564753 227.02912379 -56.04437541 231.68232876 -43 232 C-41.89527344 232.061875 -40.79054688 232.12375 -39.65234375 232.1875 C-20.04597708 232.82575405 -1.66811393 228.30787857 16 220 C16.70656738 219.6695166 17.41313477 219.3390332 18.14111328 218.99853516 C35.92743409 210.50566228 52.81304999 196.04041294 63 179 C63.57161865 178.0730835 63.57161865 178.0730835 64.15478516 177.12744141 C81.5574453 148.69351378 85.72091647 117.40592473 78.0859375 85.13671875 C76.32458215 78.58533604 74.08841119 72.48366536 71.140625 66.375 C70 64 70 64 68.6875 60.5625 C64.08312682 50.84215663 57.40638566 42.70745824 50 35 C49.15566406 34.0925 48.31132812 33.185 47.44140625 32.25 C40.93320332 25.44897517 34.01929547 19.91959043 26 15 C25.42797852 14.64808594 24.85595703 14.29617187 24.26660156 13.93359375 C6.32582171 3.13525651 -13.3490531 -1.4064291 -34.1875 -1.3125 C-35.45964355 -1.30831055 -36.73178711 -1.30412109 -38.04248047 -1.29980469 C-51.77556747 -1.13550404 -64.28732057 0.54585044 -77 6 Z " fill="#AE4845" transform="translate(183,15)"/>
<path d="M0 0 C16.17 0 32.34 0 49 0 C49.020625 5.713125 49.04125 11.42625 49.0625 17.3125 C49.071604 19.11243408 49.08070801 20.91236816 49.09008789 22.7668457 C49.09300874 24.19482346 49.0955569 25.62280205 49.09765625 27.05078125 C49.10277222 27.79114624 49.10788818 28.53151123 49.11315918 29.29431152 C49.11369951 32.46984417 49.01203336 34.96389992 48 38 C47.34 38 46.68 38 46 38 C45.8865625 38.71800781 45.773125 39.43601563 45.65625 40.17578125 C41.84418485 56.58127593 26.34453508 68.04347372 13.08984375 76.95703125 C8.66547715 79.69973815 5.04661073 81.31779642 0 83 C0 73.76 0 64.52 0 55 C8.25 55 16.5 55 25 55 C25 51.37 25 47.74 25 44 C26.32 44 27.64 44 29 44 C29 42.35 29 40.7 29 39 C27.68 39 26.36 39 25 39 C25 35.7 25 32.4 25 29 C26.32 29 27.64 29 29 29 C29 27.02 29 25.04 29 23 C27.68 23 26.36 23 25 23 C25 19.04 25 15.08 25 11 C23.865625 11.01160156 22.73125 11.02320313 21.5625 11.03515625 C20.04166833 11.0445441 18.52083486 11.05364322 17 11.0625 C15.88431641 11.07506836 15.88431641 11.07506836 14.74609375 11.08789062 C9.73851156 11.10966272 4.95720968 10.71541549 0 10 C0 6.7 0 3.4 0 0 Z " fill="#FCF9F9" transform="translate(151,120)"/>
<path d="M0 0 C16.17 0 32.34 0 49 0 C49 3.63 49 7.26 49 11 C40.75 11 32.5 11 24 11 C24 14.63 24 18.26 24 22 C22.35 22 20.7 22 19 22 C19 23.98 19 25.96 19 28 C20.65 28 22.3 28 24 28 C24 31.3 24 34.6 24 38 C22.35 38 20.7 38 19 38 C19 39.98 19 41.96 19 44 C20.65 44 22.3 44 24 44 C24 47.63 24 51.26 24 55 C32.25 55 40.5 55 49 55 C49 64.24 49 73.48 49 83 C44.32430962 82.06486192 41.43112894 80.72494087 37.5625 78.1875 C36.65431519 77.59352417 36.65431519 77.59352417 35.7277832 76.98754883 C22.73507634 68.27376672 10.19713167 57.64505542 3.84643555 42.94824219 C3.0932866 41.21471794 2.25708261 39.51781592 1.41015625 37.828125 C-1.13746593 30.98277497 -0.30657116 23.19344359 -0.1875 16 C-0.0946875 8.08 -0.0946875 8.08 0 0 Z " fill="#FCF8F8" transform="translate(97,120)"/>
<path d="M0 0 C7.70477694 5.98744714 14.37305923 13.02951774 20 21 C20.60457031 21.83144531 21.20914063 22.66289063 21.83203125 23.51953125 C33.2555619 40.91614983 36.52840222 65.31835357 32.875 85.5625 C27.50810358 109.04267182 15.81381573 129.59181038 -4.59765625 142.96484375 C-12.92757048 147.94749049 -21.5666809 152.52899879 -31 155 C-31.99902344 155.27714844 -32.99804688 155.55429688 -34.02734375 155.83984375 C-56.41894811 161.40568355 -80.23097509 157.31889851 -100.2109375 145.85546875 C-121.76842182 131.51400509 -135.06609046 110.72497585 -140.875 85.6875 C-143.50097565 70.62768783 -142.40512612 57.29277437 -137.60644531 42.83837891 C-137.10680389 41.32376541 -136.65255316 39.79425625 -136.2109375 38.26171875 C-132.97742304 27.29504019 -126.49478711 18.46485707 -119 10 C-118.45859375 9.37480469 -117.9171875 8.74960938 -117.359375 8.10546875 C-86.61036419 -25.0506616 -35.32689337 -25.17449362 0 0 Z M-91.65625 -5.359375 C-94 -4 -94 -4 -97.5 -2.6875 C-111.61016756 4.1156165 -124.39351413 18.4741048 -130 33 C-131.23120121 35.56024623 -132.46595471 38.1182091 -133.71875 40.66796875 C-137.28764156 49.94926296 -138.46488294 58.72620445 -138.3125 68.625 C-138.31733398 70.20667969 -138.31733398 70.20667969 -138.32226562 71.8203125 C-138.17999707 92.72085602 -129.8336731 112.42676322 -116 128 C-115.44699219 128.62390625 -114.89398438 129.2478125 -114.32421875 129.890625 C-107.77453232 136.83110418 -99.95174908 142.6430941 -91 146 C-88.43890675 147.22948815 -85.8818078 148.4659464 -83.33203125 149.71875 C-74.19064703 153.23384264 -65.44370654 154.50963656 -55.6875 154.375 C-54.59228027 154.36267334 -53.49706055 154.35034668 -52.36865234 154.33764648 C-31.344196 153.90397627 -12.97120287 146.7921463 3 133 C3.64839844 132.45085937 4.29679688 131.90171875 4.96484375 131.3359375 C20.41409286 117.11281927 29.40141728 95.66709335 30.30859375 75.03125 C30.74266668 59.33109288 29.54463798 46.12092532 21.359375 32.34375 C20 30 20 30 18.6875 26.5 C16.01920101 20.96575023 12.03169761 16.59790895 8 12 C7.45472656 11.35804687 6.90945312 10.71609375 6.34765625 10.0546875 C-6.14690636 -3.61620798 -27.35515376 -13.16336953 -45.66162109 -14.14233398 C-62.50900384 -14.68781276 -76.80657158 -14.181831 -91.65625 -5.359375 Z " fill="#AF4946" transform="translate(202,60)"/>
<path d="M0 0 C9.9 0 19.8 0 30 0 C30.103125 3.526875 30.20625 7.05375 30.3125 10.6875 C30.38078003 12.342052 30.38078003 12.342052 30.45043945 14.0300293 C30.55299207 21.2636274 30.55299207 21.2636274 27.7265625 25.02734375 C26.82679688 25.67832031 25.92703125 26.32929687 25 27 C24.33097656 27.53367187 23.66195312 28.06734375 22.97265625 28.6171875 C19.86622578 30.66273067 17.76233208 31.95235424 14 32.1875 C8.29048613 29.92748409 3.31532848 26.21284953 0 21 C-0.34057617 18.61816406 -0.34057617 18.61816406 -0.29296875 16.015625 C-0.28547607 15.17290039 -0.2779834 14.33017578 -0.27026367 13.46191406 C-0.24295166 12.40198242 -0.21563965 11.34205078 -0.1875 10.25 C-0.125625 6.8675 -0.06375 3.485 0 0 Z " fill="#AC423F" transform="translate(159,79)"/>
<path d="M0 0 C9.57 0 19.14 0 29 0 C29.144375 3.50625 29.28875 7.0125 29.4375 10.625 C29.53309204 12.265896 29.53309204 12.265896 29.63061523 13.93994141 C29.77053475 20.96944627 29.77053475 20.96944627 27.51831055 23.98168945 C25.74664142 25.51822462 24.00261407 26.78426186 22 28 C20.989375 28.639375 19.97875 29.27875 18.9375 29.9375 C15.20042406 31.28920832 13.76978657 31.33051291 10 30 C1.73967459 24.47934919 1.73967459 24.47934919 0 21 C-0.08400529 19.40552536 -0.10727467 17.80759455 -0.09765625 16.2109375 C-0.09515869 15.36321777 -0.09266113 14.51549805 -0.09008789 13.64208984 C-0.08098389 12.5639502 -0.07187988 11.48581055 -0.0625 10.375 C-0.041875 6.95125 -0.02125 3.5275 0 0 Z " fill="#AA3E3B" transform="translate(111,80)"/>
<path d="M0 0 C6.93 0 13.86 0 21 0 C21 11.88 21 23.76 21 36 C14.07 36 7.14 36 0 36 C0 24.12 0 12.24 0 0 Z " fill="#F5EAEA" transform="translate(125,135)"/>
<path d="M0 0 C6.93 0 13.86 0 21 0 C21 11.88 21 23.76 21 36 C14.07 36 7.14 36 0 36 C0 24.12 0 12.24 0 0 Z " fill="#F7EDED" transform="translate(151,135)"/>
<path d="M0 0 C1.19947266 0.00451172 2.39894531 0.00902344 3.63476562 0.01367188 C6.56906359 0.02536231 9.50325449 0.04174862 12.4375 0.0625 C12.4375 0.3925 12.4375 0.7225 12.4375 1.0625 C10.7875 1.3925 9.1375 1.7225 7.4375 2.0625 C7.9325 3.0525 7.9325 3.0525 8.4375 4.0625 C7.43505249 4.08437378 7.43505249 4.08437378 6.41235352 4.10668945 C-11.16300481 4.53337097 -28.18289462 5.03512092 -44.5625 12.0625 C-45.36171875 12.40539063 -46.1609375 12.74828125 -46.984375 13.1015625 C-48.49542249 13.76581492 -50.00226108 14.43975729 -51.50390625 15.125 C-53.40700751 15.99168748 -55.32221735 16.81507819 -57.25 17.625 C-60.41628657 18.99904889 -63.49106244 20.48932467 -66.5625 22.0625 C-66.5625 21.4025 -66.5625 20.7425 -66.5625 20.0625 C-67.2225 19.7325 -67.8825 19.4025 -68.5625 19.0625 C-48.57966534 4.58154713 -24.21516427 -0.17420981 0 0 Z " fill="#BB6563" transform="translate(150.5625,9.9375)"/>
<path d="M0 0 C2.64971542 1.80662415 4.55620529 3.11241058 6 6 C6.5 8.75 6.5 8.75 6 12 C3.05589526 15.86140741 0.11880831 17.76852242 -4.625 18.75 C-8 18 -8 18 -10.9375 15.375 C-13.18818265 11.69206475 -13.89426216 10.20303214 -13 6 C-9.24334527 1.4310956 -5.98941203 -0.71302524 0 0 Z " fill="#AC4340" transform="translate(60,166)"/>
<path d="M0 0 C3 2.0625 3 2.0625 5 5 C5.51605446 9.20215772 5.45273312 12.45716327 3 16 C-0.49251096 17.74625548 -4.18937191 17.55749292 -8 17 C-11.125 15.0625 -11.125 15.0625 -13 12 C-13.40144598 7.83226085 -12.9934629 4.31137102 -10.4375 0.9375 C-6.89978685 -0.4231589 -3.68634492 -0.76646776 0 0 Z " fill="#AB403D" transform="translate(53,94)"/>
<path d="M0 0 C4.65346455 1.74405827 7.5227832 3.4419177 11 7 C11.86963602 11.08728927 11.18709546 12.66946469 9.125 16.3125 C7 19 7 19 5 20 C-0.27981804 20.59997932 -2.8313401 19.17612183 -7 16 C-6.40165275 11.85701333 -4.99335715 8.81805623 -2.9375 5.1875 C-2.11572266 3.72376953 -2.11572266 3.72376953 -1.27734375 2.23046875 C-0.85582031 1.49441406 -0.43429688 0.75835937 0 0 Z " fill="#AC4240" transform="translate(100,211)"/>
<path d="M0 0 C3.28826203 2.87722927 4.74931432 4.77164017 5.625 9.0625 C4.78393451 13.01550781 3.05768375 14.42876594 0 17 C-0.70125 17.61875 -1.4025 18.2375 -2.125 18.875 C-3.053125 19.431875 -3.053125 19.431875 -4 20 C-4.99 19.67 -5.98 19.34 -7 19 C-7.33 17.02 -7.66 15.04 -8 13 C-8.66 13 -9.32 13 -10 13 C-13 6.375 -13 6.375 -13 3 C-9.13413827 -0.26182084 -4.8803928 -1.2102587 0 0 Z " fill="#AC4340" transform="translate(199,212)"/>
<path d="M0 0 C1.5675 -0.04125 3.135 -0.0825 4.75 -0.125 C5.63171875 -0.14820313 6.5134375 -0.17140625 7.421875 -0.1953125 C10.14906426 0.01129275 11.71315408 0.52694159 14 2 C15.74178725 5.4835745 15.56712235 9.19892999 15 13 C13.125 15.5625 13.125 15.5625 10 17 C6.59055312 17.30711048 3.43821327 17.18337137 0 17 C0 11.39 0 5.78 0 0 Z " fill="#AA3E3C" transform="translate(134,224)"/>
<path d="M0 0 C0.66 0 1.32 0 2 0 C2.485864 1.51870698 2.96331201 3.04010699 3.4375 4.5625 C3.83775391 5.83287109 3.83775391 5.83287109 4.24609375 7.12890625 C9.256241 26.20900068 8.04062276 53.1482119 -1 71 C-1.66 71 -2.32 71 -3 71 C-2.72975148 69.22907732 -2.45873893 67.45827125 -2.1875 65.6875 C-1.91873047 63.90859375 -1.91873047 63.90859375 -1.64453125 62.09375 C-1.20068617 59.21123456 -0.71114785 56.33992532 -0.19921875 53.46875 C2.63495561 37.27418414 2.20879433 22.21604368 0.18359375 5.94433594 C-0.00276432 3.97072468 0 1.98239015 0 0 Z " fill="#A93C39" transform="translate(262,99)"/>
<path d="M0 0 C3.20547958 1.43024761 5.5354446 3.20433073 8.125 5.5625 C10.86038045 8.07679216 10.86038045 8.07679216 14 10 C13.67 11.65 13.34 13.3 13 15 C7.555 14.505 7.555 14.505 2 14 C3.98 15.32 5.96 16.64 8 18 C7.34 19.32 6.68 20.64 6 22 C1.86186295 21.46823005 -0.27082318 19.22067834 -3.25 16.4375 C-4.14203125 15.61121094 -5.0340625 14.78492187 -5.953125 13.93359375 C-6.62859375 13.29550781 -7.3040625 12.65742187 -8 12 C-7.34 10.35 -6.68 8.7 -6 7 C-3.03 7.33 -0.06 7.66 3 8 C1.35 7.01 -0.3 6.02 -2 5 C-1.125 1.125 -1.125 1.125 0 0 Z " fill="#AD4441" transform="translate(66,54)"/>
<path d="M0 0 C2.475 0.99 2.475 0.99 5 2 C4.67 4.97 4.34 7.94 4 11 C5.32 9.35 6.64 7.7 8 6 C9.32 6.66 10.64 7.32 12 8 C10.43632643 11.52238047 8.30504111 14.27123994 5.875 17.25 C5.15054688 18.14203125 4.42609375 19.0340625 3.6796875 19.953125 C3.12539062 20.62859375 2.57109375 21.3040625 2 22 C-0.475 21.01 -0.475 21.01 -3 20 C-2.505 15.545 -2.505 15.545 -2 11 C-2.86625 12.0209375 -2.86625 12.0209375 -3.75 13.0625 C-4.86375 14.0215625 -4.86375 14.0215625 -6 15 C-8.25 14.75 -8.25 14.75 -10 14 C-8.62815653 9.93501119 -6.77931541 7.32603439 -3.875 4.1875 C-3.15054688 3.39730469 -2.42609375 2.60710937 -1.6796875 1.79296875 C-1.12539062 1.20128906 -0.57109375 0.60960937 0 0 Z " fill="#AB403D" transform="translate(83,199)"/>
<path d="M0 0 C6.93 0 13.86 0 21 0 C21 7 21 7 19.20703125 9.03125 C18.02173828 9.75828125 18.02173828 9.75828125 16.8125 10.5 C16.03519531 11.0053125 15.25789062 11.510625 14.45703125 12.03125 C11.44329054 13.21949753 10.05350749 12.98847518 7 12 C4.98046875 11.0546875 4.98046875 11.0546875 3.1875 9.875 C2.58292969 9.50117187 1.97835937 9.12734375 1.35546875 8.7421875 C0 7 0 7 0 0 Z " fill="#F7EDED" transform="translate(115,93)"/>
<path d="M0 0 C13.67560976 1.8054878 13.67560976 1.8054878 18.25 3.0625 C33.91928812 6.97982203 51.04013631 4.97146996 67 4 C67 4.66 67 5.32 67 6 C46.06977299 12.67985968 20.0500875 10.72097302 0 2 C0 1.34 0 0.68 0 0 Z " fill="#AB3F3C" transform="translate(108,241)"/>
<path d="M0 0 C0.7425 0.2475 1.485 0.495 2.25 0.75 C2.58 2.07 2.91 3.39 3.25 4.75 C5.56 5.08 7.87 5.41 10.25 5.75 C11.30082025 9.51543923 11.5891456 11.1259721 9.6875 14.625 C7.25 16.75 7.25 16.75 4 17.0625 C3.0925 16.959375 2.185 16.85625 1.25 16.75 C1.023125 15.945625 0.79625 15.14125 0.5625 14.3125 C0.129375 13.466875 -0.30375 12.62125 -0.75 11.75 C-3.26176074 10.93068911 -3.26176074 10.93068911 -5.75 10.75 C-6.75 9.75 -6.75 9.75 -7.0625 6.9375 C-6.75 3.75 -6.75 3.75 -5.0625 1.3125 C-2.75 -0.25 -2.75 -0.25 0 0 Z " fill="#B04B48" transform="translate(227.75,182.25)"/>
<path d="M0 0 C1.98 0 3.96 0 6 0 C7.875 2.5 7.875 2.5 9 5 C9.33 3.68 9.66 2.36 10 1 C11.32 1 12.64 1 14 1 C14.21824777 7.0018137 13.5056904 12.19233704 12 18 C10.35 17.67 8.7 17.34 7 17 C6.34 14.36 5.68 11.72 5 9 C4.34 9 3.68 9 3 9 C3 11.64 3 14.28 3 17 C1.35 17 -0.3 17 -2 17 C-1.34 11.39 -0.68 5.78 0 0 Z " fill="#AA3E3B" transform="translate(156,20)"/>
<path d="M0 0 C3.31593111 1.55519909 5.14725162 2.75769033 7 6 C7.4369574 8.98587554 7.47171244 10.34858758 5.6875 12.8125 C4 14 4 14 1 14 C0.34 15.98 -0.32 17.96 -1 20 C-2.32 20 -3.64 20 -5 20 C-6 17 -6 17 -4.5625 13.8125 C-4.046875 12.884375 -3.53125 11.95625 -3 11 C-3.5775 11.515625 -4.155 12.03125 -4.75 12.5625 C-7 14 -7 14 -9.25 13.6875 C-9.8275 13.460625 -10.405 13.23375 -11 13 C-10.53730015 8.70772058 -8.09840542 6.97077935 -4.9375 4.25 C-4.01839844 3.45078125 -3.09929687 2.6515625 -2.15234375 1.828125 C-1.44207031 1.22484375 -0.73179687 0.6215625 0 0 Z " fill="#AE4745" transform="translate(226,52)"/>
<path d="M0 0 C3.40001837 1.65641921 6.83286536 3.40271772 9.4375 6.1875 C9.4375 7.5075 9.4375 8.8275 9.4375 10.1875 C6.46509874 13.05664167 2.96809423 15.15105728 -1.1875 15.25 C-4.30574007 13.85499787 -6.88505464 12.31728608 -9.5625 10.1875 C-10.234375 8.05078125 -10.234375 8.05078125 -10.5625 6.1875 C-3.64645176 0.26681354 -3.64645176 0.26681354 0 0 Z " fill="#F9F3F3" transform="translate(174.5625,90.8125)"/>
<path d="M0 0 C2.375 0.4375 2.375 0.4375 4.375 2.4375 C4.375 3.4275 4.375 4.4175 4.375 5.4375 C7.345 5.4375 10.315 5.4375 13.375 5.4375 C13.045 6.7575 12.715 8.0775 12.375 9.4375 C9.735 9.4375 7.095 9.4375 4.375 9.4375 C4.375 10.0975 4.375 10.7575 4.375 11.4375 C6.85 12.4275 6.85 12.4275 9.375 13.4375 C9.045 14.7575 8.715 16.0775 8.375 17.4375 C5.405 16.4475 2.435 15.4575 -0.625 14.4375 C-0.625 13.7775 -0.625 13.1175 -0.625 12.4375 C-1.223125 12.293125 -1.82125 12.14875 -2.4375 12 C-4.18650404 11.5502561 -5.91177023 11.00857659 -7.625 10.4375 C-7.05716158 5.46891386 -5.36436182 0.8940603 0 0 Z " fill="#AD4441" transform="translate(54.625,74.5625)"/>
<path d="M0 0 C0.66 1.32 1.32 2.64 2 4 C0.71372289 5.17260611 -0.57919783 6.3379283 -1.875 7.5 C-2.59429687 8.1496875 -3.31359375 8.799375 -4.0546875 9.46875 C-6 11 -6 11 -8 11 C-8 12.32 -8 13.64 -8 15 C-4.28603159 14.02729399 -1.623838 12.87368181 1.25 10.375 C4 8 4 8 6 8 C6.33 9.65 6.66 11.3 7 13 C-0.73410843 19.73726779 -0.73410843 19.73726779 -5.3125 20.6875 C-8.76128501 19.80525267 -10.01877234 18.97184149 -12 16 C-12.875 12.8125 -12.875 12.8125 -12 9 C-4.03184713 0 -4.03184713 0 0 0 Z " fill="#AB413E" transform="translate(72,183)"/>
<path d="M0 0 C1.65 0 3.3 0 5 0 C5.08074203 2.62561109 5.1403623 5.24875676 5.1875 7.875 C5.22520508 8.99455078 5.22520508 8.99455078 5.26367188 10.13671875 C5.29296875 12.3046875 5.29296875 12.3046875 5 16 C2.03082597 17.97944936 1.34297721 18.29350581 -2 18.3125 C-2.680625 18.32925781 -3.36125 18.34601562 -4.0625 18.36328125 C-6 18 -6 18 -7.73828125 16.9296875 C-9.68689926 13.94944819 -9.28400077 11.31869461 -9.1875 7.8125 C-9.16042969 6.54019531 -9.13335937 5.26789062 -9.10546875 3.95703125 C-9.07066406 2.98121094 -9.03585938 2.00539063 -9 1 C-7.68 1 -6.36 1 -5 1 C-4.34 4.96 -3.68 8.92 -3 13 C-2.01 13.33 -1.02 13.66 0 14 C0 9.38 0 4.76 0 0 Z " fill="#AC423F" transform="translate(142,19)"/>
<path d="M0 0 C1.32 0.33 2.64 0.66 4 1 C3.34 2.98 2.68 4.96 2 7 C2.66 7 3.32 7 4 7 C4.66 5.68 5.32 4.36 6 3 C12.75 3.75 12.75 3.75 15 6 C15.33015665 9.10347254 15.50531294 11.15781176 13.875 13.875 C11.04776963 15.57133822 9.24953036 15.44601397 6 15 C2.9396667 13.2344231 0.49412245 11.49412245 -2 9 C-2.34490322 4.94738713 -2.30163882 3.45245824 0 0 Z " fill="#AF4845" transform="translate(233,167)"/>
<path d="M0 0 C2.19921875 -0.39453125 2.19921875 -0.39453125 5 0 C6.88623606 2.10214861 8.3121215 3.96332169 9.8125 6.3125 C10.21919922 6.90740234 10.62589844 7.50230469 11.04492188 8.11523438 C14 12.56026786 14 12.56026786 14 16 C12.35 16 10.7 16 9 16 C9 15.34 9 14.68 9 14 C6.69 14 4.38 14 2 14 C2 15.32 2 16.64 2 18 C0.68 18 -0.64 18 -2 18 C-1.85860519 15.74971671 -1.71171997 13.49977794 -1.5625 11.25 C-1.48128906 9.99703125 -1.40007812 8.7440625 -1.31640625 7.453125 C-1.07484478 4.81682447 -0.75716066 2.51962706 0 0 Z " fill="#AC423F" transform="translate(165,222)"/>
<path d="M0 0 C7.625 0.875 7.625 0.875 11 2 C11 3.32 11 4.64 11 6 C8.69 5.67 6.38 5.34 4 5 C4.33 5.66 4.66 6.32 5 7 C7.02463255 7.65213292 7.02463255 7.65213292 9 8 C9 9.32 9 10.64 9 12 C6.69 11.67 4.38 11.34 2 11 C2 11.99 2 12.98 2 14 C3.65 14.33 5.3 14.66 7 15 C7 16.32 7 17.64 7 19 C-0.625 18.125 -0.625 18.125 -4 17 C-2.91103333 11.24237834 -1.70663707 5.60752181 0 0 Z " fill="#AD4441" transform="translate(118,220)"/>
<path d="M0 0 C1.32 0 2.64 0 4 0 C4 3.3 4 6.6 4 10 C4.721875 9.154375 5.44375 8.30875 6.1875 7.4375 C9 5 9 5 11.8125 5.1875 C12.534375 5.455625 13.25625 5.72375 14 6 C12.46986989 9.55939356 10.36373709 12.02831385 7.6875 14.8125 C6.92824219 15.62332031 6.16898438 16.43414062 5.38671875 17.26953125 C3 19 3 19 0.20703125 18.76171875 C-0.52128906 18.51035156 -1.24960938 18.25898437 -2 18 C-2.20852314 11.59370576 -2.1583195 6.07027358 0 0 Z " fill="#AD4543" transform="translate(191,28)"/>
<path d="M0 0 C2.64 1.98 5.28 3.96 8 6 C7.67 6.99 7.34 7.98 7 9 C4.61435923 8.42415568 2.33317216 7.77772405 0 7 C0 7.66 0 8.32 0 9 C1.32 9.66 2.64 10.32 4 11 C3.67 11.99 3.34 12.98 3 14 C0.61435923 13.42415568 -1.66682784 12.77772405 -4 12 C-4 12.99 -4 13.98 -4 15 C-2.68 15.66 -1.36 16.32 0 17 C-0.33 17.99 -0.66 18.98 -1 20 C-4.87132028 19.42647107 -7.08172796 17.51295648 -10 15 C-9.45230629 10.81761166 -7.10111111 8.40131455 -4.4375 5.25 C-3.19806641 3.77273437 -3.19806641 3.77273437 -1.93359375 2.265625 C-1.29550781 1.51796875 -0.65742188 0.7703125 0 0 Z " fill="#AC423F" transform="translate(212,39)"/>
<path d="M0 0 C0.99 0.33 1.98 0.66 3 1 C2.43628586 4.26954202 1.50037734 5.82575883 -1 8 C-0.4225 7.649375 0.155 7.29875 0.75 6.9375 C3.35801776 5.85082593 4.39417629 6.06934867 7 7 C6.690625 7.598125 6.38125 8.19625 6.0625 8.8125 C4.89790296 11.08956772 4.89790296 11.08956772 4 14 C4.86625 13.2265625 4.86625 13.2265625 5.75 12.4375 C8 11 8 11 10.25 11.3125 C10.8275 11.539375 11.405 11.76625 12 12 C10.50958227 15.79379058 8.30937488 17.68343758 5 20 C4.34 20 3.68 20 3 20 C1.38910756 18.31350611 -0.14123731 16.54935666 -1.625 14.75 C-2.44226563 13.77546875 -3.25953125 12.8009375 -4.1015625 11.796875 C-6 9 -6 9 -6 5 C-3.1875 2.1875 -3.1875 2.1875 0 0 Z " fill="#AC423F" transform="translate(81,41)"/>
<path d="M0 0 C1.32 0 2.64 0 4 0 C4 1.98 4 3.96 4 6 C4.66 5.01 5.32 4.02 6 3 C12.06344683 2.33853307 12.06344683 2.33853307 14.7421875 4.23046875 C16.43273613 6.60878717 16.14022503 7.84767938 15.6875 10.6875 C15.56761719 11.49574219 15.44773438 12.30398437 15.32421875 13.13671875 C15.21722656 13.75160156 15.11023438 14.36648437 15 15 C14.01 15.33 13.02 15.66 12 16 C11.34 15.67 10.68 15.34 10 15 C10.66 12.69 11.32 10.38 12 8 C10.68 8.33 9.36 8.66 8 9 C7.67 10.32 7.34 11.64 7 13 C0.25 12.125 0.25 12.125 -2 11 C-1.85892253 9.54119891 -1.71197585 8.08296449 -1.5625 6.625 C-1.48128906 5.81289062 -1.40007812 5.00078125 -1.31640625 4.1640625 C-1 2 -1 2 0 0 Z " fill="#AD4542" transform="translate(239,150)"/>
<path d="M0 0 C0.33 0 0.66 0 1 0 C0.88353525 1.66728484 0.75630239 3.333818 0.625 5 C0.55539063 5.928125 0.48578125 6.85625 0.4140625 7.8125 C0 11 0 11 -0.9765625 14.5390625 C-2.80148835 21.50394753 -2.7914067 28.81732546 -3.2109375 35.97265625 C-3.28570313 37.10316406 -3.36046875 38.23367187 -3.4375 39.3984375 C-3.49808594 40.42630371 -3.55867188 41.45416992 -3.62109375 42.51318359 C-4 45 -4 45 -6 47 C-10.36002371 38.27995257 -7.50817329 20.07653872 -5 11 C-1.90204082 1.90204082 -1.90204082 1.90204082 0 0 Z " fill="#AD4441" transform="translate(35,93)"/>
<path d="M0 0 C1.32 0 2.64 0 4 0 C4.33 2.31 4.66 4.62 5 7 C6.9914056 7.38133299 8.99279077 7.71325582 11 8 C12.96822886 6.03177114 12.66248381 2.65191291 13 0 C14.65 0 16.3 0 18 0 C18.29397316 4.99754367 18.0979156 7.98418348 15 12 C11.48746854 14.34168764 10.13530644 14.49623677 6 14 C3.30009338 12.20006226 1.4581135 10.916227 0 8 C-0.13415472 5.3276379 -0.04318541 2.67749512 0 0 Z " fill="#AE4644" transform="translate(37,117)"/>
<path d="M0 0 C0.78955078 -0.01224609 1.57910156 -0.02449219 2.39257812 -0.03710938 C6.70045628 -0.04794226 10.01035658 0.18837065 13.9375 2.1875 C13.9375 2.5175 13.9375 2.8475 13.9375 3.1875 C13.36418945 3.20731934 12.79087891 3.22713867 12.20019531 3.24755859 C-1.17471784 3.73308994 -14.0353539 4.23575125 -26.80859375 8.6015625 C-29.30408966 9.25030494 -31.49479737 9.28712867 -34.0625 9.1875 C-33.7325 8.1975 -33.4025 7.2075 -33.0625 6.1875 C-31.3918457 5.40380859 -31.3918457 5.40380859 -29.23828125 4.8359375 C-28.45646484 4.62453125 -27.67464844 4.413125 -26.86914062 4.1953125 C-26.04607422 3.98648438 -25.22300781 3.77765625 -24.375 3.5625 C-23.57126953 3.3459375 -22.76753906 3.129375 -21.93945312 2.90625 C-14.54614432 0.94759746 -7.64080464 0.00626809 0 0 Z " fill="#AB413E" transform="translate(148.0625,41.8125)"/>
<path d="M0 0 C0 1.98 0 3.96 0 6 C-1.98 6.99 -1.98 6.99 -4 8 C-3.34 8.556875 -2.68 9.11375 -2 9.6875 C0 12 0 12 0.25 14.75 C0.1675 15.4925 0.085 16.235 0 17 C-0.54527344 16.72285156 -1.09054687 16.44570312 -1.65234375 16.16015625 C-7.21722476 13.48711084 -11.84095196 12.39105067 -18 12 C-18 10.35 -18 8.7 -18 7 C-16.845 6.95875 -15.69 6.9175 -14.5 6.875 C-9.85374349 6.33762158 -7.16918925 4.24483154 -3.6640625 1.27734375 C-2 0 -2 0 0 0 Z " fill="#AF4946" transform="translate(259,116)"/>
<path d="M0 0 C1.32 0 2.64 0 4 0 C4.10022461 0.6391333 4.20044922 1.2782666 4.30371094 1.93676758 C6.58387342 17.25650751 6.58387342 17.25650751 11.25 31.9609375 C12.25263986 34.68686462 12.31022904 37.13038135 12 40 C11.34 40 10.68 40 10 40 C4.80262709 26.74585809 0.7380486 14.35377283 0 0 Z " fill="#B14E4B" transform="translate(28,138)"/>
<path d="M0 0 C3.5 0.1875 3.5 0.1875 7 1 C9 4 9 4 8.625 6.6875 C8.315625 7.8321875 8.315625 7.8321875 8 9 C7.34 9 6.68 9 6 9 C5.67 7.68 5.34 6.36 5 5 C4.01 5 3.02 5 2 5 C2.061875 6.27875 2.12375 7.5575 2.1875 8.875 C2.29296875 11.0546875 2.29296875 11.0546875 2 13 C-1.24153166 15.1610211 -2.23692901 15.64247553 -6 15 C-8.375 12.75 -8.375 12.75 -10 10 C-9.75 7.6875 -9.75 7.6875 -9 6 C-8.01 6 -7.02 6 -6 6 C-4.3125 8 -4.3125 8 -3 10 C-2.814375 8.081875 -2.814375 8.081875 -2.625 6.125 C-2.25 2.25 -2.25 2.25 0 0 Z " fill="#AA3D3A" transform="translate(236,70)"/>
<path d="M0 0 C3.43839315 1.33476085 6.74393925 2.83077602 10.0625 4.4375 C22.78514385 10.15005134 35.25472545 10.65038017 49 11 C49 11.33 49 11.66 49 12 C42.73 12 36.46 12 30 12 C30 12.66 30 13.32 30 14 C18.61488451 12.60292539 8.18822469 9.27879315 -2 4 C-1.01 3.67 -0.02 3.34 1 3 C0.67 2.01 0.34 1.02 0 0 Z " fill="#B45451" transform="translate(106,203)"/>
<path d="M0 0 C0.66 0.66 1.32 1.32 2 2 C1.31035156 2.24234375 0.62070313 2.4846875 -0.08984375 2.734375 C-5.47309812 4.65432855 -10.74173094 6.68974264 -15.94140625 9.0625 C-17.84450751 9.92918748 -19.75971735 10.75257819 -21.6875 11.5625 C-24.85378657 12.93654889 -27.92856244 14.42682467 -31 16 C-31 15.34 -31 14.68 -31 14 C-31.66 13.67 -32.32 13.34 -33 13 C-26.52682215 8.30908478 -19.97487177 4.92444149 -12.5625 2 C-11.78148926 1.68538818 -11.00047852 1.37077637 -10.19580078 1.04663086 C-9.45185059 0.76311768 -8.70790039 0.47960449 -7.94140625 0.1875 C-7.27826416 -0.06644531 -6.61512207 -0.32039062 -5.93188477 -0.58203125 C-3.5893612 -1.08884287 -2.23528327 -0.83194949 0 0 Z " fill="#AD4441" transform="translate(115,16)"/>
<path d="M0 0 C1.60355101 3.50776784 2.22036864 6.14354879 2 10 C0.0625 9.6875 0.0625 9.6875 -2 9 C-2.33 8.01 -2.66 7.02 -3 6 C-3.66 5.67 -4.32 5.34 -5 5 C-4.67 7.31 -4.34 9.62 -4 12 C-5.32 12 -6.64 12 -8 12 C-8.66 10.68 -9.32 9.36 -10 8 C-11.98 8.33 -13.96 8.66 -16 9 C-16.33 7.35 -16.66 5.7 -17 4 C-15.10751181 3.32389577 -13.2108398 2.65949561 -11.3125 2 C-10.25675781 1.62875 -9.20101562 1.2575 -8.11328125 0.875 C-5.21637944 0.0608143 -2.98299377 -0.17709796 0 0 Z " fill="#AD4441" transform="translate(57,151)"/>
<path d="M0 0 C1.32 0 2.64 0 4 0 C5.33583899 4.84241633 6.25328119 8.93437617 6 14 C4.68 14 3.36 14 2 14 C2 12.68 2 11.36 2 10 C1.32453125 10.2165625 0.6490625 10.433125 -0.046875 10.65625 C-0.93890625 10.9346875 -1.8309375 11.213125 -2.75 11.5 C-3.63171875 11.7784375 -4.5134375 12.056875 -5.421875 12.34375 C-8 13 -8 13 -12 13 C-12.33 11.35 -12.66 9.7 -13 8 C-8.46298506 6.54815522 -4.81938524 5.76490804 0 6 C0 4.02 0 2.04 0 0 Z " fill="#B04B48" transform="translate(251,97)"/>
<path d="M0 0 C24.58456486 5.58456486 24.58456486 5.58456486 30 11 C30 11.99 30 12.98 30 14 C24.65956926 12.26275144 19.44850175 10.26084354 14.21875 8.21875 C5.64061316 4.9707176 -2.3355637 3.88489574 -11.4375 3.4375 C-12.26443359 3.39431641 -13.09136719 3.35113281 -13.94335938 3.30664062 C-15.96209549 3.20161967 -17.98102951 3.10041441 -20 3 C-20 2.67 -20 2.34 -20 2 C-10.1 1.505 -10.1 1.505 0 1 C0 0.67 0 0.34 0 0 Z " fill="#B55754" transform="translate(161,43)"/>
<path d="M0 0 C7.26 0 14.52 0 22 0 C22 2.97 22 5.94 22 9 C18.4124787 7.66749209 15.1635377 6.169283 12 4 C12 3.34 12 2.68 12 2 C9.24350734 3.57513866 6.78001463 5.17905786 4.3125 7.1875 C2 9 2 9 0 9 C0 6.03 0 3.06 0 0 Z " fill="#E9CECD" transform="translate(163,83)"/>
<path d="M0 0 C0.66 0 1.32 0 2 0 C3.33984375 1.43359375 3.33984375 1.43359375 4.9375 3.4375 C10.27357143 9.72245442 16.73846211 15.00790001 23.6875 19.4375 C24.450625 19.953125 25.21375 20.46875 26 21 C26 21.66 26 22.32 26 23 C22.22685777 23.57665004 20.95708549 22.97194832 17.6953125 20.83984375 C16.49402559 19.88631705 15.30429262 18.91809794 14.125 17.9375 C13.50729736 17.43597412 12.88959473 16.93444824 12.25317383 16.41772461 C-0.25853628 6.14726267 -0.25853628 6.14726267 -1 1 C-0.67 0.67 -0.34 0.34 0 0 Z " fill="#AD4441" transform="translate(81,183)"/>
<path d="M0 0 C2.65204896 0.36834013 3.73840056 0.6867691 5.484375 2.77734375 C5.90203125 3.49019531 6.3196875 4.20304687 6.75 4.9375 C7.17796875 5.64777344 7.6059375 6.35804687 8.046875 7.08984375 C9 9 9 9 9 11 C9.99 10.34 10.98 9.68 12 9 C14.1875 9.375 14.1875 9.375 16 10 C16 10.99 16 11.98 16 13 C10.69331496 16.01516196 10.69331496 16.01516196 8.03515625 15.95703125 C4.88215398 14.47433345 3.88636693 12.10785268 2.1875 9.125 C1.24970703 7.52011719 1.24970703 7.52011719 0.29296875 5.8828125 C-1 3 -1 3 0 0 Z " fill="#AC413E" transform="translate(91,34)"/>
<path d="M0 0 C6.93 0 13.86 0 21 0 C21 1.65 21 3.3 21 5 C14.07 5 7.14 5 0 5 C0 3.35 0 1.7 0 0 Z " fill="#F2E3E2" transform="translate(115,84)"/>
<path d="M0 0 C0 0.99 0 1.98 0 3 C-2.1953125 4.83203125 -2.1953125 4.83203125 -5.125 6.8125 C-8.48612393 9.15235935 -11.57793498 11.37919615 -14.375 14.375 C-17.00573628 17.00573628 -18.62403912 17.70155351 -22 19 C-24.77152212 21.52056045 -24.77152212 21.52056045 -27 24 C-27.66 23.67 -28.32 23.34 -29 23 C-26.34194689 20.28310035 -23.67202867 17.57815047 -21 14.875 C-20.25621094 14.11445312 -19.51242188 13.35390625 -18.74609375 12.5703125 C-6.28414601 0 -6.28414601 0 0 0 Z " fill="#AE4744" transform="translate(84,30)"/>
<path d="M0 0 C1.32 0 2.64 0 4 0 C4.6708712 1.6232687 5.33657029 3.24867578 6 4.875 C6.556875 6.23238281 6.556875 6.23238281 7.125 7.6171875 C8 10 8 10 8 12 C9.98 11.67 11.96 11.34 14 11 C14 12.32 14 13.64 14 15 C10.14742381 16.87125129 8.12048864 16.99030231 4 16 C3.32586789 14.08594633 2.6609668 12.16863974 2 10.25 C1.62875 9.18265625 1.2575 8.1153125 0.875 7.015625 C0 4 0 4 0 0 Z " fill="#AB403D" transform="translate(107,26)"/>
<path d="M0 0 C2.98168634 1.49084317 3.16462675 3.91001691 4.21484375 6.90234375 C5.00426157 9.16123656 5.00426157 9.16123656 6.5 11.75 C8.75213263 16.62962069 9.80789267 21.77501893 11 27 C10.34 27 9.68 27 9 27 C9.33 29.97 9.66 32.94 10 36 C8.19332411 32.38664822 7.20622624 29.31732974 6.1875 25.4375 C4.59591719 19.68978398 2.57951091 14.45707643 -0.046875 9.109375 C-1 7 -1 7 -1 5 C-0.34 5 0.32 5 1 5 C0.67 3.35 0.34 1.7 0 0 Z " fill="#B65956" transform="translate(253,72)"/>
<path d="M0 0 C0 0.66 0 1.32 0 2 C-11.17913606 5.56780938 -22.40042534 5.11261723 -34 5 C-34 4.34 -34 3.68 -34 3 C-34.66 2.67 -35.32 2.34 -36 2 C-31.67681133 1.71308465 -27.3534879 1.42831943 -23.0300293 1.14550781 C-21.56058976 1.04908747 -20.09118801 0.95208939 -18.62182617 0.85449219 C-16.50449239 0.71395801 -14.38702945 0.57553202 -12.26953125 0.4375 C-10.36071167 0.31181641 -10.36071167 0.31181641 -8.41333008 0.18359375 C-5.59805949 0.03216799 -2.81793516 -0.03766664 0 0 Z " fill="#A5322F" transform="translate(175,245)"/>
<path d="M0 0 C0 0.66 0 1.32 0 2 C-11.4498892 5.49424412 -25.24309342 8.91896886 -37 5 C-37 4.34 -37 3.68 -37 3 C-36.07662842 2.94465088 -35.15325684 2.88930176 -34.2019043 2.83227539 C-30.77444546 2.62489719 -27.34724948 2.41389758 -23.92016602 2.20043945 C-22.43718216 2.10881716 -20.95410846 2.01863706 -19.47094727 1.92993164 C-17.33845127 1.80213894 -15.20633271 1.66915421 -13.07421875 1.53515625 C-11.79119873 1.456604 -10.50817871 1.37805176 -9.1862793 1.29711914 C-5.93156406 0.99361838 -3.26981883 0 0 0 Z " fill="#AC4340" transform="translate(173,212)"/>
<path d="M0 0 C3.99436881 0.38083782 6.03938753 2.57522743 8.8125 5.3125 C9.62332031 6.09238281 10.43414062 6.87226563 11.26953125 7.67578125 C13 10 13 10 12.76171875 12.29296875 C12.51035156 12.85628906 12.25898438 13.41960937 12 14 C9.10840265 13.58691466 8.1081158 13.11509101 6.0625 10.9375 C4.13426482 8.72759614 4.13426482 8.72759614 1.25 8.75 C0.13625 8.87375 0.13625 8.87375 -1 9 C-1.09765625 2.84765625 -1.09765625 2.84765625 -1 1 C-0.67 0.67 -0.34 0.34 0 0 Z " fill="#AB403D" transform="translate(214,195)"/>
<path d="M0 0 C0.93423645 3.01031744 1.04449911 3.86650268 0 7 C0.66 7 1.32 7 2 7 C2.33 6.34 2.66 5.68 3 5 C2.33333333 8.33333333 1.66666667 11.66666667 1 15 C0.34 15 -0.32 15 -1 15 C-1.2475 15.639375 -1.495 16.27875 -1.75 16.9375 C-3.40811572 20.99988351 -5.2035584 24.99724906 -7 29 C-7.33 27.68 -7.66 26.36 -8 25 C-8.66 25.33 -9.32 25.66 -10 26 C-9.02188723 22.65811472 -7.95024321 19.91873058 -6.125 16.9375 C-2.99927378 11.74362411 -1.63711432 5.7908565 0 0 Z " fill="#AF4946" transform="translate(259,163)"/>
<path d="M0 0 C-3.91890428 3.04803666 -7.76382884 5.49637471 -12.375 7.375 C-16.41018783 9.1838773 -19.48042857 11.34236443 -23 14 C-23.33 12.68 -23.66 11.36 -24 10 C-6.09348922 -3.78968681 -6.09348922 -3.78968681 0 0 Z " fill="#AE4845" transform="translate(117,51)"/>
<path d="M0 0 C0 1.32 0 2.64 0 4 C-3.64370498 6.84664452 -8.4757888 8.95664314 -13 10 C-15.24609375 9.578125 -15.24609375 9.578125 -17 9 C-17 7.68 -17 6.36 -17 5 C-15.10908264 4.15557119 -13.21202485 3.32488413 -11.3125 2.5 C-10.25675781 2.0359375 -9.20101562 1.571875 -8.11328125 1.09375 C-5.14372184 0.05049199 -3.10804937 -0.23065301 0 0 Z " fill="#B04C49" transform="translate(251,86)"/>
<path d="M0 0 C1.65 0 3.3 0 5 0 C4.31063929 3.91121498 3.21749819 7.55508596 1.9375 11.3125 C1.57527344 12.38113281 1.21304688 13.44976562 0.83984375 14.55078125 C0.42412109 15.76314453 0.42412109 15.76314453 0 17 C-1.65 16.67 -3.3 16.34 -5 16 C-4.54548816 14.26982492 -4.08621143 12.54090123 -3.625 10.8125 C-3.36976563 9.84957031 -3.11453125 8.88664062 -2.8515625 7.89453125 C-2.05233704 5.17789793 -1.0968638 2.60862825 0 0 Z " fill="#AB413E" transform="translate(179,24)"/>
<path d="M0 0 C2.3125 -0.3125 2.3125 -0.3125 5 0 C7.92651133 3.88210686 9.04440049 8.16448838 10.1875 12.8125 C10.36474609 13.50537109 10.54199219 14.19824219 10.72460938 14.91210938 C11.15690974 16.60625944 11.57945894 18.30289268 12 20 C11.34 20 10.68 20 10 20 C10 21.65 10 23.3 10 25 C8.46637296 22.14810632 7.50823817 19.43936137 6.6875 16.3125 C5.36835242 11.72268238 3.45522474 7.88768688 0.98828125 3.8125 C0 2 0 2 0 0 Z " fill="#B2504D" transform="translate(221,88)"/>
<path d="M0 0 C0.86560547 0.00451172 1.73121094 0.00902344 2.62304688 0.01367188 C4.72789539 0.02530087 6.83270758 0.04322927 8.9375 0.0625 C8.9375 1.0525 8.9375 2.0425 8.9375 3.0625 C-6.4075 3.5575 -6.4075 3.5575 -22.0625 4.0625 C-16.45217542 -1.54782458 -7.57145675 -0.0763607 0 0 Z " fill="#A63532" transform="translate(147.0625,9.9375)"/>
<path d="M0 0 C-0.49490286 4.2115263 -2.80967975 6.05243689 -5.8125 8.875 C-9.45317657 12.39588321 -12.46709522 15.62498265 -15 20 C-15.66 19.01 -16.32 18.02 -17 17 C-14.06653018 11.0055182 -7.46389041 0 0 0 Z " fill="#AD4341" transform="translate(94,62)"/>
<path d="M0 0 C0 0.66 0 1.32 0 2 C0.66 2.33 1.32 2.66 2 3 C1.25234375 3.33773437 0.5046875 3.67546875 -0.265625 4.0234375 C-1.25046875 4.46945313 -2.2353125 4.91546875 -3.25 5.375 C-4.22453125 5.81585938 -5.1990625 6.25671875 -6.203125 6.7109375 C-7.88063598 7.484092 -9.54385973 8.29149316 -11.171875 9.1640625 C-13 10 -13 10 -16 10 C-16 9.34 -16 8.68 -16 8 C-16.825 8.33 -17.65 8.66 -18.5 9 C-22.5873983 10.16782809 -25.76923344 10.1458885 -30 10 C-30 9.67 -30 9.34 -30 9 C-28.60201172 8.77957031 -28.60201172 8.77957031 -27.17578125 8.5546875 C-18.87084113 7.09355547 -12.07722956 5.03166217 -4.51171875 1.20703125 C-2 0 -2 0 0 0 Z " fill="#B85E5B" transform="translate(189,204)"/>
<path d="M0 0 C0.66 0 1.32 0 2 0 C4.90830856 7.93840199 5.64838839 15.58557044 6 24 C4.68 23.67 3.36 23.34 2 23 C1.66322033 19.91703293 1.33118201 16.833573 1 13.75 C0.90460938 12.87730469 0.80921875 12.00460938 0.7109375 11.10546875 C0.62070312 10.26113281 0.53046875 9.41679688 0.4375 8.546875 C0.35371094 7.77182617 0.26992188 6.99677734 0.18359375 6.19824219 C0.01156119 4.13842677 0 2.06698688 0 0 Z " fill="#B45552" transform="translate(262,99)"/>
<path d="M0 0 C1.53589353 4.60768058 0.37509007 7.18235762 -1.62890625 11.55078125 C-2.26729949 12.80782361 -2.91197674 14.0616919 -3.5625 15.3125 C-4.0565332 16.28026367 -4.0565332 16.28026367 -4.56054688 17.26757812 C-5.36824255 18.84785228 -6.18337613 20.42432105 -7 22 C-7.99 21.34 -8.98 20.68 -10 20 C-9.40077751 15.97351715 -8.10666692 12.98182467 -6.125 9.4375 C-5.61195312 8.50808594 -5.09890625 7.57867187 -4.5703125 6.62109375 C-3.16963227 4.28314243 -1.68235211 2.1407175 0 0 Z " fill="#B04B48" transform="translate(77,77)"/>
<path d="M0 0 C1.32 0 2.64 0 4 0 C2.52404517 4.48304037 0.96771452 8.93216475 -0.625 13.375 C-0.85445312 14.01566406 -1.08390625 14.65632813 -1.3203125 15.31640625 C-1.87962276 16.87781405 -2.43972808 18.43893701 -3 20 C-3.66 19.01 -4.32 18.02 -5 17 C-5.66 17.33 -6.32 17.66 -7 18 C-5.42035192 11.38223191 -3.69757049 5.73760939 0 0 Z " fill="#B85E5B" transform="translate(40,77)"/>
<path d="M0 0 C4.48304037 1.47595483 8.93216475 3.03228548 13.375 4.625 C14.01566406 4.85445312 14.65632813 5.08390625 15.31640625 5.3203125 C16.87781405 5.87962276 18.43893701 6.43972808 20 7 C16.98968256 7.93423645 16.13349732 8.04449911 13 7 C13 7.66 13 8.32 13 9 C6.97229862 8.52412884 2.23321711 5.80277043 -3 3 C-2.01 2.01 -1.02 1.02 0 0 Z " fill="#BA6260" transform="translate(95,234)"/>
<path d="M0 0 C0.625 2.375 0.625 2.375 1 5 C0.34 5.66 -0.32 6.32 -1 7 C-6.45454545 6.54545455 -6.45454545 6.54545455 -9 4 C-9 2.68 -9 1.36 -9 0 C-5.93109813 -1.53445094 -3.29905734 -0.54984289 0 0 Z " fill="#F6EBEB" transform="translate(53,100)"/>
<path d="M0 0 C0.33 1.65 0.66 3.3 1 5 C-0.6875 6.5625 -0.6875 6.5625 -3 8 C-5.75 7.6875 -5.75 7.6875 -8 7 C-8.6875 5.1875 -8.6875 5.1875 -9 3 C-6.75886401 -0.69128281 -4.00118708 -0.26674581 0 0 Z " fill="#F5E8E8" transform="translate(60,171)"/>
<path d="M0 0 C4.29 0 8.58 0 13 0 C13 1.32 13 2.64 13 4 C10.00519083 4.8723412 7.36424089 5.10829766 4.25 5.0625 C3.45078125 5.05347656 2.6515625 5.04445312 1.828125 5.03515625 C1.22484375 5.02355469 0.6215625 5.01195312 0 5 C0 3.35 0 1.7 0 0 Z " fill="#B45451" transform="translate(129,150)"/>
<path d="M0 0 C3.96 0 7.92 0 12 0 C12 1.65 12 3.3 12 5 C8.04 5 4.08 5 0 5 C0 3.35 0 1.7 0 0 Z " fill="#B35250" transform="translate(155,150)"/>
<path d="M0 0 C1 3 1 3 -0.29296875 5.8828125 C-1.23076172 7.48769531 -1.23076172 7.48769531 -2.1875 9.125 C-2.79980469 10.20007813 -3.41210938 11.27515625 -4.04296875 12.3828125 C-6 15 -6 15 -8.11328125 15.9296875 C-10 16 -10 16 -12 15 C-11.60167969 14.48050781 -11.20335937 13.96101562 -10.79296875 13.42578125 C-8.4826247 10.38467144 -6.24792723 7.42239453 -4.3125 4.125 C-3 2 -3 2 0 0 Z " fill="#AE4744" transform="translate(251,187)"/>
<path d="M0 0 C3.96 0.33 7.92 0.66 12 1 C12 2.32 12 3.64 12 5 C8.04 5 4.08 5 0 5 C0 3.35 0 1.7 0 0 Z " fill="#B14E4C" transform="translate(155,139)"/>
<path d="M0 0 C0.33 0 0.66 0 1 0 C0.54240047 6.5508985 -0.2100144 12.6753842 -2 19 C-3.5625 17.9375 -3.5625 17.9375 -5 16 C-4.812792 11.22619605 -3.55682279 3.55682279 0 0 Z " fill="#AA3E3C" transform="translate(35,93)"/>
<path d="M0 0 C0.66 0.66 1.32 1.32 2 2 C-0.07914664 2.70005949 -2.16351586 3.38462244 -4.25 4.0625 C-5.41015625 4.44535156 -6.5703125 4.82820313 -7.765625 5.22265625 C-10.80077085 5.95211763 -12.15703213 6.11889082 -15 5 C-10.72104863 1.22445467 -5.82384561 -2.49593383 0 0 Z " fill="#B75A58" transform="translate(115,16)"/>
<path d="M0 0 C0.33 0 0.66 0 1 0 C1.04898438 1.18335937 1.09796875 2.36671875 1.1484375 3.5859375 C1.64957251 14.8452126 1.64957251 14.8452126 3.5234375 25.94140625 C4.21736546 28.93894751 4.60226451 31.95069458 5 35 C3.00902154 32.01353231 2.05875074 29.40312738 1 26 C0.34 26 -0.32 26 -1 26 C-1.33 24.02 -1.66 22.04 -2 20 C-1.34 20 -0.68 20 0 20 C0 13.4 0 6.8 0 0 Z " fill="#BD6966" transform="translate(63,123)"/>
<path d="M0 0 C0 1.65 0 3.3 0 5 C-3.96 5 -7.92 5 -12 5 C-12 3.68 -12 2.36 -12 1 C-7.915021 0.45533613 -4.1274515 0 0 0 Z " fill="#AB403D" transform="translate(142,161)"/>
<path d="M0 0 C2.97 0.495 2.97 0.495 6 1 C6 1.66 6 2.32 6 3 C8.97 3.99 11.94 4.98 15 6 C10.44510117 7.13872471 9.29017055 6.51417784 5 5 C-0.46784781 4.05892569 -5.90631642 3.70937929 -11.4375 3.4375 C-12.26443359 3.39431641 -13.09136719 3.35113281 -13.94335938 3.30664062 C-15.96209549 3.20161967 -17.98102951 3.10041441 -20 3 C-20 2.67 -20 2.34 -20 2 C-10.1 1.505 -10.1 1.505 0 1 C0 0.67 0 0.34 0 0 Z " fill="#BD6967" transform="translate(161,43)"/>
<path d="M0 0 C0 0.66 0 1.32 0 2 C-6.25948114 4.13391403 -12.42208127 4.58955515 -19 5 C-18.34 4.67 -17.68 4.34 -17 4 C-17 3.34 -17 2.68 -17 2 C-17.66 1.67 -18.32 1.34 -19 1 C-16.77100213 0.83109082 -14.54179338 0.66496313 -12.3125 0.5 C-10.45044922 0.36078125 -10.45044922 0.36078125 -8.55078125 0.21875 C-5.68500671 0.04220063 -2.86900043 -0.04388528 0 0 Z " fill="#AD4441" transform="translate(175,245)"/>
<path d="M0 0 C3.96 0.33 7.92 0.66 12 1 C12 2.32 12 3.64 12 5 C8.04 5 4.08 5 0 5 C0 3.35 0 1.7 0 0 Z " fill="#AB3F3C" transform="translate(155,161)"/>
<path d="M0 0 C1.32 0.66 2.64 1.32 4 2 C4.125 4.375 4.125 4.375 4 7 C2 9 2 9 -0.625 9.125 C-1.40875 9.08375 -2.1925 9.0425 -3 9 C-2.5020163 5.26512223 -2.12508244 3.18762365 0 0 Z " fill="#F1E0DF" transform="translate(102,217)"/>
<path d="M0 0 C0.66 0.33 1.32 0.66 2 1 C1.34 1.66 0.68 2.32 0 3 C0.33 3.66 0.66 4.32 1 5 C-0.59910868 6.00806851 -2.20448262 7.00620385 -3.8125 8 C-5.15248047 8.8353125 -5.15248047 8.8353125 -6.51953125 9.6875 C-9 11 -9 11 -12 11 C-12 10.01 -12 9.02 -12 8 C-9.62890625 6.2109375 -9.62890625 6.2109375 -6.5625 4.375 C-3.09234338 2.43951068 -3.09234338 2.43951068 0 0 Z " fill="#AF4845" transform="translate(201,195)"/>
<path d="M0 0 C4.49014624 1.49671541 8.47848764 3.83368341 12 7 C12 7.66 12 8.32 12 9 C7.8029908 9.35281338 5.93477927 8.64185432 2.6875 6 C1.99011719 5.443125 1.29273437 4.88625 0.57421875 4.3125 C0.05472656 3.879375 -0.46476562 3.44625 -1 3 C-0.67 2.01 -0.34 1.02 0 0 Z " fill="#B04B49" transform="translate(95,197)"/>
<path d="M0 0 C3.96 0 7.92 0 12 0 C12 1.32 12 2.64 12 4 C8.04 4 4.08 4 0 4 C0 2.68 0 1.36 0 0 Z " fill="#AC4240" transform="translate(130,139)"/>
<path d="M0 0 C2.475 0.495 2.475 0.495 5 1 C5.625 3.3125 5.625 3.3125 6 6 C5.01 7.485 5.01 7.485 4 9 C2.68 9 1.36 9 0 9 C0 6.03 0 3.06 0 0 Z " fill="#F2E3E3" transform="translate(139,228)"/>
<path d="M0 0 C0.33 0 0.66 0 1 0 C1.05382106 2.62527189 1.09358313 5.24944713 1.125 7.875 C1.14175781 8.62136719 1.15851562 9.36773437 1.17578125 10.13671875 C1.1933959 12.09194461 1.10320189 14.04742021 1 16 C0.34 16.66 -0.32 17.32 -1 18 C-2.48520725 15.02958551 -2.1705822 12.30235553 -2.1875 9 C-2.20167969 7.741875 -2.21585938 6.48375 -2.23046875 5.1875 C-2 2 -2 2 0 0 Z " fill="#A5322F" transform="translate(30,122)"/>
<path d="M0 0 C6.7281627 -0.22262303 12.53991163 0.04978464 19 2 C19 2.66 19 3.32 19 4 C16.20677782 3.91327254 13.41687472 3.80644643 10.625 3.6875 C9.8309375 3.66494141 9.036875 3.64238281 8.21875 3.61914062 C6.13784419 3.52214925 4.06558668 3.27005175 2 3 C1.34 2.01 0.68 1.02 0 0 Z " fill="#A73734" transform="translate(157,11)"/>
<path d="M0 0 C1.32 0 2.64 0 4 0 C4.66 5.61 5.32 11.22 6 17 C3.8614515 14.8614515 3.57344937 13.86724686 3 11 C2.01 11.495 2.01 11.495 1 12 C0.67 8.04 0.34 4.08 0 0 Z " fill="#B24F4D" transform="translate(28,138)"/>
<path d="M0 0 C4.75 0.75 4.75 0.75 7 3 C6.625 6.125 6.625 6.125 6 9 C5.01 9 4.02 9 3 9 C0 3.375 0 3.375 0 0 Z " fill="#F5E8E8" transform="translate(192,216)"/>
<path d="M0 0 C0.56203125 0.36867187 1.1240625 0.73734375 1.703125 1.1171875 C-6.01116071 7.1171875 -6.01116071 7.1171875 -9.296875 7.1171875 C-9.296875 6.1271875 -9.296875 5.1371875 -9.296875 4.1171875 C-9.956875 3.7871875 -10.616875 3.4571875 -11.296875 3.1171875 C-9.88995893 2.38967962 -8.47081478 1.68578397 -7.046875 0.9921875 C-6.25796875 0.59773438 -5.4690625 0.20328125 -4.65625 -0.203125 C-2.296875 -0.8828125 -2.296875 -0.8828125 0 0 Z " fill="#B9605D" transform="translate(115.296875,49.8828125)"/>
<path d="M0 0 C3.63 0 7.26 0 11 0 C9.33784732 1.33895632 7.67036393 2.67130142 6 4 C4.9171875 4.86625 4.9171875 4.86625 3.8125 5.75 C2 7 2 7 0 7 C0 4.69 0 2.38 0 0 Z " fill="#FCF9F9" transform="translate(164,84)"/>
<path d="M0 0 C4.03520597 1.58962659 8.01811282 3.28232318 12 5 C11.01 5.495 11.01 5.495 10 6 C9.34 5.67 8.68 5.34 8 5 C8.33 5.99 8.66 6.98 9 8 C4.94718288 6.77472971 1.55639236 5.30119506 -2 3 C-1.34 2.67 -0.68 2.34 0 2 C0 1.34 0 0.68 0 0 Z " fill="#B75C5A" transform="translate(196,20)"/>
<path d="M0 0 C0.93423645 3.01031744 1.04449911 3.86650268 0 7 C0.66 7 1.32 7 2 7 C1.01 10.3 0.02 13.6 -1 17 C-1.99 17 -2.98 17 -4 17 C-4.33 16.34 -4.66 15.68 -5 15 C-4.29906956 13.331118 -3.59095988 11.66464882 -2.8359375 10.01953125 C-1.48944987 6.76656814 -0.78186264 3.42816698 0 0 Z " fill="#B55654" transform="translate(230,148)"/>
<path d="M0 0 C0.33 0.66 0.66 1.32 1 2 C1.66 2 2.32 2 3 2 C3 6.62 3 11.24 3 16 C2.34 16 1.68 16 1 16 C0.14701624 12.32612505 -0.10789471 8.9552607 -0.0625 5.1875 C-0.05347656 4.21167969 -0.04445313 3.23585938 -0.03515625 2.23046875 C-0.02355469 1.49441406 -0.01195312 0.75835937 0 0 Z " fill="#A5312E" transform="translate(265,121)"/>
<path d="M0 0 C0.33 0.66 0.66 1.32 1 2 C2.32 1.34 3.64 0.68 5 0 C3.55049545 3.7910119 1.84827434 7.3874638 0 11 C-0.99 10.34 -1.98 9.68 -3 9 C-2.44271087 5.65626525 -1.64826111 2.96687001 0 0 Z " fill="#B85D5A" transform="translate(70,88)"/>
<path d="M0 0 C5.61 0 11.22 0 17 0 C17 0.99 17 1.98 17 3 C17.804375 3.12375 18.60875 3.2475 19.4375 3.375 C20.283125 3.58125 21.12875 3.7875 22 4 C22.33 4.66 22.66 5.32 23 6 C21.26363281 5.58427734 21.26363281 5.58427734 19.4921875 5.16015625 C17.95315001 4.79416563 16.41408611 4.42828609 14.875 4.0625 C13.73417969 3.78889648 13.73417969 3.78889648 12.5703125 3.50976562 C8.39571566 2.52009827 4.24540161 1.64427021 0 1 C0 0.67 0 0.34 0 0 Z " fill="#B85D5B" transform="translate(163,14)"/>
<path d="M0 0 C2.3828125 -0.29296875 2.3828125 -0.29296875 5.125 -0.1875 C6.03507813 -0.16042969 6.94515625 -0.13335937 7.8828125 -0.10546875 C8.58148438 -0.07066406 9.28015625 -0.03585938 10 0 C10.33 1.32 10.66 2.64 11 4 C6.71 3.67 2.42 3.34 -2 3 C-1.34 2.01 -0.68 1.02 0 0 Z " fill="#B04B48" transform="translate(130,246)"/>
<path d="M0 0 C0 0.66 0 1.32 0 2 C-1.60256108 2.50512244 -3.20711792 3.00391627 -4.8125 3.5 C-6.15248047 3.91765625 -6.15248047 3.91765625 -7.51953125 4.34375 C-10 5 -10 5 -13 5 C-13 4.34 -13 3.68 -13 3 C-14.65 3 -16.3 3 -18 3 C-18 2.67 -18 2.34 -18 2 C-17.16855469 1.93941406 -16.33710938 1.87882813 -15.48046875 1.81640625 C-13.85044922 1.69072266 -13.85044922 1.69072266 -12.1875 1.5625 C-11.10855469 1.48128906 -10.02960938 1.40007812 -8.91796875 1.31640625 C-5.75810561 0.97377049 -3.1932719 0 0 0 Z " fill="#A93B38" transform="translate(173,212)"/>
<path d="M0 0 C0.33 0 0.66 0 1 0 C1.48667297 6.00230002 -0.30117022 11.31700989 -2 17 C-2.33 17 -2.66 17 -3 17 C-2.96744792 14.98177083 -2.93489583 12.96354167 -2.90234375 10.9453125 C-2.87350758 8.91814596 -2.87350758 8.91814596 -4 7 C-1.55555556 1.55555556 -1.55555556 1.55555556 0 0 Z " fill="#B3524F" transform="translate(68,96)"/>
<path d="M0 0 C1 4 1 4 0 7 C0.66 7 1.32 7 2 7 C2.33 6.34 2.66 5.68 3 5 C2.33333333 8.33333333 1.66666667 11.66666667 1 15 C0.34 15 -0.32 15 -1 15 C-1 13.35 -1 11.7 -1 10 C-1.99 10.495 -1.99 10.495 -3 11 C-2.01 7.37 -1.02 3.74 0 0 Z " fill="#C98482" transform="translate(259,163)"/>
<path d="M0 0 C0.66 0 1.32 0 2 0 C2.66 3.3 3.32 6.6 4 10 C3.34 10 2.68 10 2 10 C2 11.65 2 13.3 2 15 C1.67 15 1.34 15 1 15 C0.15318867 9.91913204 -0.09038099 5.15171623 0 0 Z " fill="#AB3F3C" transform="translate(231,108)"/>
<path d="M0 0 C-1.55966218 0.508783 -3.12289241 1.00663469 -4.6875 1.5 C-5.99267578 1.91765625 -5.99267578 1.91765625 -7.32421875 2.34375 C-9.99391677 2.99850805 -12.26396684 3.11831495 -15 3 C-14.67 2.01 -14.34 1.02 -14 0 C-8.6132319 -2.44853095 -5.41181315 -1.80393772 0 0 Z " fill="#B14D4A" transform="translate(129,48)"/>
<path d="M0 0 C0.99 0.33 1.98 0.66 3 1 C2.01 4.96 1.02 8.92 0 13 C-0.66 13 -1.32 13 -2 13 C-1.34 8.71 -0.68 4.42 0 0 Z " fill="#A83A37" transform="translate(232,142)"/>
<path d="M0 0 C2 1 2 1 2.8515625 2.92578125 C3.10679688 3.71339844 3.36203125 4.50101563 3.625 5.3125 C4.01558594 6.48232422 4.01558594 6.48232422 4.4140625 7.67578125 C5 10 5 10 5 14 C4.34 14 3.68 14 3 14 C-0.44419134 4.58997722 -0.44419134 4.58997722 0 0 Z " fill="#A73633" transform="translate(63,148)"/>
<path d="M0 0 C3.0916909 2.52956528 3.90931332 5.22454612 5 9 C3.68 9 2.36 9 1 9 C-2 4.92857143 -2 4.92857143 -2 2 C-1.34 2 -0.68 2 0 2 C0 1.34 0 0.68 0 0 Z " fill="#B65855" transform="translate(40,176)"/>
<path d="M0 0 C4.96916636 0.51405169 9.29026351 1.23384882 14 3 C14 3.66 14 4.32 14 5 C8.72250715 4.46148032 4.74354436 3.22656164 0 1 C0 0.67 0 0.34 0 0 Z " fill="#A63431" transform="translate(166,45)"/>
<path d="M0 0 C1.12377697 3.30435084 0.89554742 5.0506862 -0.4375 8.25 C-0.72496094 8.95640625 -1.01242187 9.6628125 -1.30859375 10.390625 C-1.53675781 10.92171875 -1.76492188 11.4528125 -2 12 C-2.66 12 -3.32 12 -4 12 C-3.67 9.03 -3.34 6.06 -3 3 C-2.34 3 -1.68 3 -1 3 C-0.67 2.01 -0.34 1.02 0 0 Z " fill="#A73734" transform="translate(263,158)"/>
<path d="M0 0 C0.33 0 0.66 0 1 0 C2.20465156 4.65798604 3.28547412 9.23649415 4 14 C3.67 13.01 3.34 12.02 3 11 C2.01 11 1.02 11 0 11 C-0.19491452 9.54263913 -0.38069358 8.08405407 -0.5625 6.625 C-0.66691406 5.81289062 -0.77132813 5.00078125 -0.87890625 4.1640625 C-1 2 -1 2 0 0 Z " fill="#A83A37" transform="translate(31,147)"/>
<path d="M0 0 C0.33 0.99 0.66 1.98 1 3 C-0.8125 6.1875 -0.8125 6.1875 -3 9 C-3.66 9 -4.32 9 -5 9 C-4.125 3.25 -4.125 3.25 -3 1 C-2.01 0.67 -1.02 0.34 0 0 Z " fill="#AC423F" transform="translate(46,69)"/>
<path d="M0 0 C0.66 0 1.32 0 2 0 C3.49821059 3.37097383 4 5.20442119 4 9 C3.34 9 2.68 9 2 9 C1.67 10.32 1.34 11.64 1 13 C0.67 8.71 0.34 4.42 0 0 Z " fill="#AA3E3C" transform="translate(262,99)"/>
<path d="M0 0 C0.33 0 0.66 0 1 0 C0.88529863 1.75070517 0.75780972 3.50057536 0.625 5.25 C0.55539063 6.22453125 0.48578125 7.1990625 0.4140625 8.203125 C0.01534751 10.89633189 -0.63507063 12.66963279 -2 15 C-1.96744792 12.98177083 -1.93489583 10.96354167 -1.90234375 8.9453125 C-1.87350758 6.91814596 -1.87350758 6.91814596 -3 5 C-1.625 2.375 -1.625 2.375 0 0 Z " fill="#B04B48" transform="translate(35,93)"/>
<path d="M0 0 C0 3 0 3 -2.5 5.6875 C-3.325 6.450625 -4.15 7.21375 -5 8 C-4.67 8.66 -4.34 9.32 -4 10 C-5.98 10.99 -5.98 10.99 -8 12 C-8.33 10.68 -8.66 9.36 -9 8 C-8.43410156 7.50628906 -7.86820313 7.01257813 -7.28515625 6.50390625 C-6.55167969 5.86324219 -5.81820312 5.22257813 -5.0625 4.5625 C-4.33160156 3.92441406 -3.60070312 3.28632813 -2.84765625 2.62890625 C-1.87860647 1.77458541 -0.91348825 0.91348825 0 0 Z " fill="#B14E4B" transform="translate(229,213)"/>
<path d="M0 0 C0.99 0.495 0.99 0.495 2 1 C2 1.99 2 2.98 2 4 C2.99 4 3.98 4 5 4 C5.33 4.99 5.66 5.98 6 7 C5.34 7 4.68 7 4 7 C4.33 9.97 4.66 12.94 5 16 C3.22714569 12.45429137 2.28770187 9.56675327 1.375 5.75 C0.98441406 4.13351563 0.98441406 4.13351563 0.5859375 2.484375 C0.39257812 1.66453125 0.19921875 0.8446875 0 0 Z " fill="#B9615E" transform="translate(258,92)"/>
<path d="M0 0 C2.3125 -0.3125 2.3125 -0.3125 5 0 C6.875 2.375 6.875 2.375 8 5 C7.67 5.66 7.34 6.32 7 7 C6.01 6.34 5.02 5.68 4 5 C3.67 5.66 3.34 6.32 3 7 C0 2.25 0 2.25 0 0 Z " fill="#C17270" transform="translate(221,88)"/>
<path d="M0 0 C1.43836751 0.11458693 2.87570966 0.24209116 4.3125 0.375 C5.51326172 0.47941406 5.51326172 0.47941406 6.73828125 0.5859375 C9 1 9 1 12 3 C9.69 2.67 7.38 2.34 5 2 C5 2.66 5 3.32 5 4 C3.0625 3.6875 3.0625 3.6875 1 3 C0.67 2.01 0.34 1.02 0 0 Z " fill="#B75B59" transform="translate(103,239)"/>
<path d="M0 0 C1.32 0 2.64 0 4 0 C3.25 2.9375 3.25 2.9375 2 6 C-0.125 6.875 -0.125 6.875 -2 7 C-1.125 1.125 -1.125 1.125 0 0 Z " fill="#B35350" transform="translate(40,77)"/>
<path d="M0 0 C2.475 0.495 2.475 0.495 5 1 C5 2.32 5 3.64 5 5 C3.35 5 1.7 5 0 5 C0 3.35 0 1.7 0 0 Z " fill="#B65856" transform="translate(182,230)"/>
<path d="M0 0 C0.33 0 0.66 0 1 0 C1.14285714 8.57142857 1.14285714 8.57142857 0 12 C0.66 12 1.32 12 2 12 C1.67 12.99 1.34 13.98 1 15 C0.67 14.67 0.34 14.34 0 14 C-0.66 14.66 -1.32 15.32 -2 16 C-1.34 10.72 -0.68 5.44 0 0 Z " fill="#BA615F" transform="translate(263,145)"/>
<path d="M0 0 C0.66 0.33 1.32 0.66 2 1 C1.67 1.33 1.34 1.66 1 2 C2.65 2 4.3 2 6 2 C5 4 5 4 3.15234375 4.6328125 C2.05599609 4.87644531 2.05599609 4.87644531 0.9375 5.125 C0.20402344 5.29257812 -0.52945313 5.46015625 -1.28515625 5.6328125 C-1.85105469 5.75398438 -2.41695313 5.87515625 -3 6 C-2.67 5.01 -2.34 4.02 -2 3 C-2.66 2.67 -3.32 2.34 -4 2 C-2.125 0.9375 -2.125 0.9375 0 0 Z " fill="#C47977" transform="translate(100,19)"/>
<path d="M0 0 C-0.99 0.495 -0.99 0.495 -2 1 C-1.67 1.66 -1.34 2.32 -1 3 C-1.99 3 -2.98 3 -4 3 C-4 2.34 -4 1.68 -4 1 C-4.680625 1.165 -5.36125 1.33 -6.0625 1.5 C-9.4164822 2.07089059 -12.60389805 2.06659023 -16 2 C-16 1.67 -16 1.34 -16 1 C-14.0852312 0.63571223 -12.16807707 0.28394694 -10.25 -0.0625 C-9.18265625 -0.25972656 -8.1153125 -0.45695313 -7.015625 -0.66015625 C-4.25228095 -0.97156937 -2.59053383 -0.8991416 0 0 Z " fill="#BA6361" transform="translate(179,244)"/>
<path d="M0 0 C0.66 0 1.32 0 2 0 C3.4783226 2.95664519 3.06032783 5.74229737 3 9 C2.34 9 1.68 9 1 9 C-0.4783226 6.04335481 -0.06032783 3.25770263 0 0 Z " fill="#AD4542" transform="translate(265,114)"/>
<path d="M0 0 C0 0.99 0 1.98 0 3 C-2.3125 4.125 -2.3125 4.125 -5 5 C-5.99 4.34 -6.98 3.68 -8 3 C-4.93882432 0.37613513 -4.26826873 0 0 0 Z " fill="#B45351" transform="translate(106,54)"/>
<path d="M0 0 C1.32 0.66 2.64 1.32 4 2 C3.67 2.99 3.34 3.98 3 5 C2.01 5.33 1.02 5.66 0 6 C-0.66 4.68 -1.32 3.36 -2 2 C-1.34 1.34 -0.68 0.68 0 0 Z " fill="#AB403D" transform="translate(208,217)"/>
<path d="M0 0 C3.86107457 2.57404971 3.94319692 4.61020259 5 9 C4.01 9 3.02 9 2 9 C0.14223235 5.86501708 -0.20140476 3.62528568 0 0 Z " fill="#A73734" transform="translate(258,87)"/>
<path d="M0 0 C-0.99 1.485 -0.99 1.485 -2 3 C-6.875 1.25 -6.875 1.25 -8 -1 C-4.37673261 -2.2077558 -3.35853631 -1.54311128 0 0 Z " fill="#B3524F" transform="translate(84,227)"/>
<path d="M0 0 C2.16874252 0.50603992 3.99967627 0.99983813 6 2 C6 3.65 6 5.3 6 7 C5.67 6.01 5.34 5.02 5 4 C3.35 3.67 1.7 3.34 0 3 C0 2.01 0 1.02 0 0 Z " fill="#EACFCE" transform="translate(120,231)"/>
<path d="M0 0 C1.5 1.3125 1.5 1.3125 3 3 C3 3.99 3 4.98 3 6 C1.68 5.67 0.36 5.34 -1 5 C-1.33 3.68 -1.66 2.36 -2 1 C-1.34 0.67 -0.68 0.34 0 0 Z " fill="#B2504D" transform="translate(222,83)"/>
<path d="M0 0 C0 0.66 0 1.32 0 2 C-4.455 2.495 -4.455 2.495 -9 3 C-7.14340032 -0.71319936 -3.69365381 -0.09982848 0 0 Z " fill="#A5322F" transform="translate(175,245)"/>
<path d="M0 0 C0.33 0.99 0.66 1.98 1 3 C-1.97 3.66 -4.94 4.32 -8 5 C-5.59563974 1.39345961 -4.05320393 1.14547068 0 0 Z " fill="#A73633" transform="translate(182,208)"/>
<path d="M0 0 C0.99 0.33 1.98 0.66 3 1 C0.03839944 4.12613393 -2.09567131 6.04783565 -6 8 C-4.02 5.36 -2.04 2.72 0 0 Z " fill="#B35350" transform="translate(83,199)"/>
<path d="M0 0 C0.66 0.33 1.32 0.66 2 1 C1.34 1.66 0.68 2.32 0 3 C0.33 3.66 0.66 4.32 1 5 C-0.98 5.99 -0.98 5.99 -3 7 C-3.66 6.01 -4.32 5.02 -5 4 C-3.35 2.68 -1.7 1.36 0 0 Z " fill="#B24F4C" transform="translate(201,195)"/>
<path d="M0 0 C0.33 0.66 0.66 1.32 1 2 C1.66 2 2.32 2 3 2 C2.34 4.31 1.68 6.62 1 9 C0.67 7.68 0.34 6.36 0 5 C-0.99 5.495 -0.99 5.495 -2 6 C-1.34 4.02 -0.68 2.04 0 0 Z " fill="#BE6C6A" transform="translate(251,183)"/>
<path d="M0 0 C1.98 0.99 1.98 0.99 4 2 C4 3.32 4 4.64 4 6 C3.01 6 2.02 6 1 6 C0.67 4.02 0.34 2.04 0 0 Z " fill="#AE4744" transform="translate(225,93)"/>
<path d="M0 0 C4.455 0.99 4.455 0.99 9 2 C9 2.66 9 3.32 9 4 C5.87709365 3.51421457 3.00419641 3.0013988 0 2 C0 1.34 0 0.68 0 0 Z " fill="#A5322F" transform="translate(180,15)"/>
<path d="M0 0 C2.475 0.99 2.475 0.99 5 2 C4.01 2.495 4.01 2.495 3 3 C3.33 3.99 3.66 4.98 4 6 C2.02 5.34 0.04 4.68 -2 4 C-1.01 3.67 -0.02 3.34 1 3 C0.67 2.01 0.34 1.02 0 0 Z " fill="#C27471" transform="translate(106,203)"/>
<path d="M0 0 C0.99 0.33 1.98 0.66 3 1 C2.360625 1.556875 1.72125 2.11375 1.0625 2.6875 C-1.19680987 5.22066561 -1.63149047 6.68341424 -2 10 C-2.33 10 -2.66 10 -3 10 C-3.36923077 4.58461538 -3.36923077 4.58461538 -1.5 1.625 C-1.005 1.08875 -0.51 0.5525 0 0 Z " fill="#BA615F" transform="translate(50,168)"/>
<path d="M0 0 C0.33 0.66 0.66 1.32 1 2 C2.32 1.34 3.64 0.68 5 0 C3.92598892 2.91517292 3.22189824 4.77810176 1 7 C1 6.01 1 5.02 1 4 C0.34 4 -0.32 4 -1 4 C-0.67 2.68 -0.34 1.36 0 0 Z " fill="#C37674" transform="translate(70,88)"/>
<path d="M0 0 C0.66 0.33 1.32 0.66 2 1 C2.73075648 3.3140622 3.40138258 5.64828869 4 8 C3.01 7.67 2.02 7.34 1 7 C0.67 7.66 0.34 8.32 0 9 C-0.33 7.68 -0.66 6.36 -1 5 C-0.34 5 0.32 5 1 5 C0.67 3.35 0.34 1.7 0 0 Z " fill="#BD6A68" transform="translate(253,72)"/>
<path d="M0 0 C2.96175123 0.61277612 4.38058783 1.25372522 7 3 C5.02 3.99 5.02 3.99 3 5 C2.01 4.34 1.02 3.68 0 3 C0 2.01 0 1.02 0 0 Z " fill="#EFDAD9" transform="translate(208,51)"/>
<path d="M0 0 C2.64 0.33 5.28 0.66 8 1 C8 1.66 8 2.32 8 3 C7.01 3 6.02 3 5 3 C4.67 3.99 4.34 4.98 4 6 C2.62437146 4.71034824 1.29233607 3.37310707 0 2 C0 1.34 0 0.68 0 0 Z " fill="#EDD6D5" transform="translate(212,46)"/>
<path d="M0 0 C0 1.32 0 2.64 0 4 C-0.99 3.67 -1.98 3.34 -3 3 C-5.00875442 3.27571139 -7.01178687 3.60235737 -9 4 C-6.43425105 1.43425105 -3.68548192 0 0 0 Z " fill="#BD6866" transform="translate(185,206)"/>
<path d="M0 0 C0.66 0 1.32 0 2 0 C4 3 4 3 4 7 C3.34 7 2.68 7 2 7 C0.5393715 4.35261084 0 3.10551666 0 0 Z " fill="#A73634" transform="translate(36,171)"/>
<path d="M0 0 C0.66 0.66 1.32 1.32 2 2 C1.625 4.625 1.625 4.625 1 7 C0.01 7 -0.98 7 -2 7 C-2 3.89448334 -1.4606285 2.64738916 0 0 Z " fill="#B45553" transform="translate(221,171)"/>
<path d="M0 0 C1.09658936 3.28976808 0.79953138 4.71303767 0 8 C-0.33 7.34 -0.66 6.68 -1 6 C-1.66 6 -2.32 6 -3 6 C-1.125 1.125 -1.125 1.125 0 0 Z " fill="#B75B59" transform="translate(77,77)"/>
<path d="M0 0 C0.66 0.66 1.32 1.32 2 2 C1.625 4.125 1.625 4.125 1 6 C-0.32 6 -1.64 6 -3 6 C-1.125 1.125 -1.125 1.125 0 0 Z " fill="#B55654" transform="translate(47,64)"/>
<path d="M0 0 C0.33 0.99 0.66 1.98 1 3 C-0.32 4.32 -1.64 5.64 -3 7 C-3 3 -3 3 -1.5 1.25 C-1.005 0.8375 -0.51 0.425 0 0 Z " fill="#A93B38" transform="translate(52,60)"/>
<path d="M0 0 C0.33 0.99 0.66 1.98 1 3 C1.66 3.33 2.32 3.66 3 4 C0.35261084 5.4606285 -0.89448334 6 -4 6 C-3.0022242 3.00667261 -2.2477975 2.05233685 0 0 Z " fill="#E9CECD" transform="translate(84,43)"/>
<path d="M0 0 C0.66 0 1.32 0 2 0 C2 0.99 2 1.98 2 3 C0.02 3.99 -1.96 4.98 -4 6 C-2.84826645 3.53199953 -1.95216435 1.95216435 0 0 Z " fill="#A93A37" transform="translate(82,30)"/>
<path d="M0 0 C-0.33 1.65 -0.66 3.3 -1 5 C-1.99 5.33 -2.98 5.66 -4 6 C-4 5.34 -4 4.68 -4 4 C-4.66 3.67 -5.32 3.34 -6 3 C-2.25 0 -2.25 0 0 0 Z " fill="#B55754" transform="translate(88,26)"/>
<path d="M0 0 C1.2065625 0.0309375 1.2065625 0.0309375 2.4375 0.0625 C2.1075 1.3825 1.7775 2.7025 1.4375 4.0625 C0.4475 4.0625 -0.5425 4.0625 -1.5625 4.0625 C-1.5625 3.4025 -1.5625 2.7425 -1.5625 2.0625 C-2.2225 1.7325 -2.8825 1.4025 -3.5625 1.0625 C-2.5625 0.0625 -2.5625 0.0625 0 0 Z " fill="#B65856" transform="translate(95.5625,21.9375)"/>
<path d="M0 0 C-0.33 0.99 -0.66 1.98 -1 3 C-2.98 3.33 -4.96 3.66 -7 4 C-3.375 0 -3.375 0 0 0 Z " fill="#A73734" transform="translate(107,18)"/>
</svg>
