<?xml version="1.0" encoding="UTF-8"?>
<svg version="1.1" xmlns="http://www.w3.org/2000/svg" width="328" height="312">
<path d="M0 0 C108.24 0 216.48 0 328 0 C328 102.96 328 205.92 328 312 C219.76 312 111.52 312 0 312 C0 209.04 0 106.08 0 0 Z " fill="#01011B" transform="translate(0,0)"/>
<path d="M0 0 C8.58 0 17.16 0 26 0 C26 7.92 26 15.84 26 24 C22.65875 24.0309375 22.65875 24.0309375 19.25 24.0625 C14.44368116 24.20666946 14.44368116 24.20666946 10.390625 26.37890625 C9.4617707 28.12436936 9.4617707 28.12436936 8.765625 30.0390625 C6.17259295 36.68039968 -0.73110657 41.52427332 -6 46 C-12.09876914 51.20626634 -17.65478266 56.71706339 -23.0625 62.625 C-34.85314338 75.37711889 -44.87498622 81.06081961 -62.67578125 81.91796875 C-67.11967124 82.02762996 -71.55539797 82.09216917 -76 82 C-72.4156838 76.96258264 -68.5793442 72.26925393 -64.4375 67.6875 C-63.97883545 67.17219727 -63.5201709 66.65689453 -63.04760742 66.12597656 C-61.06820341 63.96482309 -59.27263637 62.15390294 -56.70996094 60.70727539 C-53.3275203 58.57633779 -50.71314594 55.90495238 -47.95703125 53.046875 C-46.78854174 51.85794486 -45.61991755 50.66914708 -44.45117188 49.48046875 C-42.63650459 47.62258929 -40.82442407 45.76228207 -39.01538086 43.89892578 C-32.10417301 36.7956085 -25.42547266 30.32755714 -17 25 C-11.08455942 20.91526913 -6.24835672 16.86273227 -2 11 C-1.34 7.37 -0.68 3.74 0 0 Z " fill="#112D4B" transform="translate(234,66)"/>
<path d="M0 0 C0.65880661 0.00424484 1.31761322 0.00848969 1.99638367 0.01286316 C4.0852576 0.02955679 6.17314014 0.06718817 8.26171875 0.10546875 C9.68423078 0.12052778 11.10675805 0.13421406 12.52929688 0.14648438 C16.00292226 0.17942872 19.47597362 0.23114467 22.94921875 0.29296875 C22.0072446 1.74910615 21.05952065 3.20152513 20.109375 4.65234375 C19.31865601 5.86615723 19.31865601 5.86615723 18.51196289 7.10449219 C16.63980073 9.72627966 14.55803222 11.41997446 11.94921875 13.29296875 C11.10359375 14.15921875 10.25796875 15.02546875 9.38671875 15.91796875 C7.24703611 18.00278774 5.67838753 19.18108517 2.94921875 20.29296875 C2.94921875 20.95296875 2.94921875 21.61296875 2.94921875 22.29296875 C2.28921875 22.29296875 1.62921875 22.29296875 0.94921875 22.29296875 C0.72234375 23.07671875 0.49546875 23.86046875 0.26171875 24.66796875 C-1.39459179 27.98058983 -2.69116411 28.03311232 -6.05078125 29.29296875 C-6.30214844 29.84984375 -6.55351562 30.40671875 -6.8125 30.98046875 C-8.65860886 34.4280916 -11.46348807 36.65251721 -14.36328125 39.23046875 C-15.50611656 40.25940881 -16.64805558 41.28934529 -17.7890625 42.3203125 C-18.34287598 42.82071045 -18.89668945 43.3211084 -19.46728516 43.83666992 C-22.48285018 46.61000408 -25.33780217 49.51922441 -28.11328125 52.53125 C-29.07234375 53.55798828 -29.07234375 53.55798828 -30.05078125 54.60546875 C-30.69015625 55.30285156 -31.32953125 56.00023437 -31.98828125 56.71875 C-34.52202291 58.65264751 -35.9377763 58.61183558 -39.05078125 58.29296875 C-39.05078125 59.94296875 -39.05078125 61.59296875 -39.05078125 63.29296875 C-41.03078125 63.78796875 -41.03078125 63.78796875 -43.05078125 64.29296875 C-43.25574219 65.13601562 -43.46070312 65.9790625 -43.671875 66.84765625 C-43.94128906 67.94335938 -44.21070312 69.0390625 -44.48828125 70.16796875 C-44.75511719 71.25851563 -45.02195312 72.3490625 -45.296875 73.47265625 C-46.05078125 76.29296875 -46.05078125 76.29296875 -47.05078125 78.29296875 C-55.63078125 78.29296875 -64.21078125 78.29296875 -73.05078125 78.29296875 C-73.05078125 69.71296875 -73.05078125 61.13296875 -73.05078125 52.29296875 C-69.75078125 51.63296875 -66.45078125 50.97296875 -63.05078125 50.29296875 C-53.66893375 46.69793032 -47.42935366 38.68814091 -41.05078125 31.29296875 C-40.36757812 30.50921875 -39.684375 29.72546875 -38.98046875 28.91796875 C-37.86253156 27.63459691 -36.74647672 26.34958152 -35.6328125 25.0625 C-33.40187831 22.5671588 -31.04614742 20.21350976 -28.65625 17.87109375 C-27.32257565 16.56013405 -26.02540234 15.21216396 -24.73828125 13.85546875 C-10.07208399 -0.1285798 -10.07208399 -0.1285798 0 0 Z " fill="#0D253D" transform="translate(139.05078125,171.70703125)"/>
<path d="M0 0 C9.03789977 2.4732535 15.41537908 9.7399928 21 17 C19.67879172 19.93230193 18.25361803 21.98664899 15.9609375 24.234375 C15.38085938 24.80800781 14.80078125 25.38164062 14.203125 25.97265625 C13.59984375 26.55917969 12.9965625 27.14570313 12.375 27.75 C11.76398438 28.35199219 11.15296875 28.95398438 10.5234375 29.57421875 C9.02011376 31.05405305 7.51065144 32.52764676 6 34 C2.59221584 33.02634738 0.11893738 32.08903766 -2.73806763 29.95025635 C-6.67522294 27.59629518 -9.00525607 27.51518691 -13.56591797 27.54589844 C-14.6645089 27.54502228 -14.6645089 27.54502228 -15.78529358 27.54412842 C-18.18808637 27.54689855 -20.58961347 27.57793735 -22.9921875 27.609375 C-24.66512372 27.61684126 -26.33806873 27.62253237 -28.01101685 27.62652588 C-32.40063899 27.64175205 -36.78972639 27.68100733 -41.17913818 27.7253418 C-45.66362272 27.76635997 -50.14819419 27.78455083 -54.6328125 27.8046875 C-63.42211959 27.84750498 -72.21099315 27.9157191 -81 28 C-80.91621094 26.74703125 -80.83242187 25.4940625 -80.74609375 24.203125 C-80.64290491 22.55210357 -80.54005822 20.90106073 -80.4375 19.25 C-80.38142578 18.425 -80.32535156 17.6 -80.26757812 16.75 C-80.21923828 15.95078125 -80.17089844 15.1515625 -80.12109375 14.328125 C-80.0739624 13.5949707 -80.02683105 12.86181641 -79.97827148 12.10644531 C-79.92193557 9.65346243 -79.92193557 9.65346243 -81 6 C-57.24 6 -33.48 6 -9 6 C-9 6.99 -9 7.98 -9 9 C-7.68412059 7.87895467 -6.37239647 6.75303035 -5.0625 5.625 C-3.96615234 4.68527344 -3.96615234 4.68527344 -2.84765625 3.7265625 C-0.91619094 2.12252286 -0.91619094 2.12252286 0 0 Z " fill="#061625" transform="translate(279,140)"/>
<path d="M0 0 C8.91 0 17.82 0 27 0 C28.38226016 2.76452033 28.09525387 5.0461363 28.0625 8.125 C28.05347656 9.22070312 28.04445313 10.31640625 28.03515625 11.4453125 C28.02355469 12.28835937 28.01195313 13.13140625 28 14 C28.86496094 14.22042969 29.72992188 14.44085938 30.62109375 14.66796875 C34.53342662 16.21028726 37.09826843 18.43241436 40.0625 21.3125 C40.56587891 21.78623047 41.06925781 22.25996094 41.58789062 22.74804688 C46.14556804 27.05808852 50.61516301 31.46129223 54.8125 36.125 C55.41707031 36.78757813 56.02164063 37.45015625 56.64453125 38.1328125 C58 40 58 40 58 43 C59.32 43.33 60.64 43.66 62 44 C62 53.9 62 63.8 62 74 C60.02 72.68 58.04 71.36 56 70 C56 69.34 56 68.68 56 68 C55.46375 67.773125 54.9275 67.54625 54.375 67.3125 C48.43030256 64.02727247 43.8493306 58.90079083 39.13452148 54.10083008 C36.98937359 51.917553 34.83851251 49.73999815 32.6875 47.5625 C31.96626953 46.82451172 31.24503906 46.08652344 30.50195312 45.32617188 C26.40574536 41.19322682 22.44802635 37.69665053 17.44458008 34.69506836 C16 33 16 33 16 26 C10.72 26 5.44 26 0 26 C0 17.42 0 8.84 0 0 Z " fill="#0D253D" transform="translate(66,64)"/>
<path d="M0 0 C0.96054291 0.00015106 1.92108582 0.00030212 2.91073608 0.00045776 C4.43919662 0.01594162 4.43919662 0.01594162 5.99853516 0.03173828 C7.58391586 0.03598312 7.58391586 0.03598312 9.20132446 0.04031372 C12.56353266 0.05147228 15.92547052 0.07656919 19.28759766 0.10205078 C21.57275005 0.11208616 23.85790663 0.12121103 26.14306641 0.12939453 C31.73300176 0.15139746 37.32278039 0.18483205 42.91259766 0.22705078 C42.58259766 1.21705078 42.25259766 2.20705078 41.91259766 3.22705078 C41.81741975 5.14180622 41.78273189 7.05993744 41.78759766 8.97705078 C41.78501953 9.98251953 41.78244141 10.98798828 41.77978516 12.02392578 C41.92301332 15.47825216 42.40335696 18.80952485 42.91259766 22.22705078 C36.18655632 22.27785118 29.46056467 22.31282658 22.734375 22.33691406 C20.44724682 22.34695812 18.16013143 22.36059586 15.87304688 22.37792969 C12.58151079 22.40224786 9.29014483 22.41355003 5.99853516 22.42236328 C4.97956146 22.43268585 3.96058777 22.44300842 2.91073608 22.4536438 C1.95019318 22.45379486 0.98965027 22.45394592 0 22.45410156 C-0.83939117 22.45854279 -1.67878235 22.46298401 -2.54360962 22.46755981 C-5.08740234 22.22705078 -5.08740234 22.22705078 -11.08740234 20.22705078 C-11.08740234 14.28705078 -11.08740234 8.34705078 -11.08740234 2.22705078 C-4.33740234 -0.02294922 -4.33740234 -0.02294922 0 0 Z " fill="#153557" transform="translate(87.08740234375,145.77294921875)"/>
<path d="M0 0 C5.24007351 1.3915218 8.68646408 3.71048854 12.8125 7.0625 C13.72890259 7.79678223 13.72890259 7.79678223 14.66381836 8.54589844 C19.76924339 12.69485558 24.68258847 17.02167259 29 22 C29.89976562 22.95519531 30.79953125 23.91039062 31.7265625 24.89453125 C35.47725352 30.24692299 34.52559261 36.6856907 34.3125 42.9375 C34.28994141 44.19369141 34.26738281 45.44988281 34.24414062 46.74414062 C34.18546147 49.83066415 34.10340527 52.91470486 34 56 C24.49364309 54.28710817 24.49364309 54.28710817 20.375 50.8125 C19.6325 50.18730469 18.89 49.56210938 18.125 48.91796875 C0.48870069 32.99991183 0.48870069 32.99991183 -0.15258789 21.18994141 C-0.19651926 17.9781817 -0.17455648 14.77414123 -0.125 11.5625 C-0.11597656 10.44939453 -0.10695312 9.33628906 -0.09765625 8.18945312 C-0.0742224 5.45940977 -0.041414 2.7298199 0 0 Z " fill="#275A90" transform="translate(176,156)"/>
<path d="M0 0 C6.6 0 13.2 0 20 0 C20 15.84 20 31.68 20 48 C14.39 47.67 8.78 47.34 3 47 C0.525 47.495 0.525 47.495 -2 48 C-2.57733454 37.19493849 -3.10256024 26.38306081 -3.25 15.5625 C-3.27126953 14.80155029 -3.29253906 14.04060059 -3.31445312 13.2565918 C-3.31896484 12.53383057 -3.32347656 11.81106934 -3.328125 11.06640625 C-3.3374707 10.44709229 -3.34681641 9.82777832 -3.35644531 9.18969727 C-3 7 -3 7 0 0 Z " fill="#4394EA" transform="translate(154,76)"/>
<path d="M0 0 C7.26 0 14.52 0 22 0 C22 13.2 22 26.4 22 40 C15.4 40 8.8 40 2 40 C2 36.04 2 32.08 2 28 C1.34 28 0.68 28 0 28 C0 18.76 0 9.52 0 0 Z " fill="#214E7F" transform="translate(152,190)"/>
<path d="M0 0 C3.465 1.485 3.465 1.485 7 3 C7 4.32 7 5.64 7 7 C7.886875 7.061875 8.77375 7.12375 9.6875 7.1875 C13.91139846 8.22355057 15.23521023 9.66625028 18 13 C18.94064373 15.64573812 19.62652719 17.97153153 20.1875 20.6875 C20.34766602 21.39575928 20.50783203 22.10401855 20.67285156 22.83374023 C21.13206167 24.88592306 21.56691135 26.942179 22 29 C22.34224609 30.49660156 22.34224609 30.49660156 22.69140625 32.0234375 C23.96096297 37.79414986 24.91156932 43.26529205 23 49 C15.99942971 47.99521226 9.43950077 40.94978225 5 35.75 C1.33555225 30.71138435 -0.38018688 27.7536422 -0.29296875 21.38671875 C-0.28330078 20.13955078 -0.27363281 18.89238281 -0.26367188 17.60742188 C-0.2259668 15.66706055 -0.2259668 15.66706055 -0.1875 13.6875 C-0.17396484 12.37458984 -0.16042969 11.06167969 -0.14648438 9.70898438 C-0.11117443 6.47223923 -0.0618528 3.23632895 0 0 Z " fill="#3576BF" transform="translate(132,114)"/>
<path d="M0 0 C0.845625 0.53625 1.69125 1.0725 2.5625 1.625 C3.93744474 2.47925561 5.31244897 3.33341548 6.6875 4.1875 C7.68136719 4.83912109 7.68136719 4.83912109 8.6953125 5.50390625 C10.66999909 6.78151676 10.66999909 6.78151676 13.5625 7.625 C15.64663626 10.32665812 16.50617823 12.2387936 17 15.625 C16.10726598 21.74660473 10.95345577 25.22687568 6.5625 29.171875 C4.45666522 30.70189558 3.14086267 31.34983877 0.5625 31.625 C-6.36995605 28.9954477 -12.84968788 24.50096672 -17.4375 18.625 C-17.3741419 12.82320826 -13.15159018 8.71492073 -9.4375 4.625 C-3.95960959 -0.60917071 -3.95960959 -0.60917071 0 0 Z " fill="#408DE2" transform="translate(163.4375,254.375)"/>
<path d="M0 0 C6.41000751 3.95511101 11.22633575 8.97962997 15.9375 14.8125 C14.65069566 17.64346954 13.69824135 19.04008749 11.375 21.25 C8.73968412 23.53259895 8.73968412 23.53259895 8.5546875 26.2890625 C7.9375 28.8125 7.9375 28.8125 6.01171875 30.46484375 C5.22410156 30.88894531 4.43648437 31.31304687 3.625 31.75 C2.84511719 32.19214844 2.06523438 32.63429687 1.26171875 33.08984375 C-1.0625 33.8125 -1.0625 33.8125 -3.125 33.0859375 C-4.0840625 32.45558594 -4.0840625 32.45558594 -5.0625 31.8125 C-5.68511719 31.44511719 -6.30773438 31.07773438 -6.94921875 30.69921875 C-11.92998642 27.38230839 -11.92998642 27.38230839 -12.6875 24.125 C-12.81125 23.361875 -12.935 22.59875 -13.0625 21.8125 C-15.53886012 20.43783375 -15.53886012 20.43783375 -18.0625 19.8125 C-16.93475133 13.76366624 -15.88284059 10.8993105 -11.0625 6.8125 C-10.43730469 6.17570313 -9.81210937 5.53890625 -9.16796875 4.8828125 C-3.95337787 -0.24204354 -3.95337787 -0.24204354 0 0 Z " fill="#408DE1" transform="translate(46.0625,140.1875)"/>
<path d="M0 0 C8.58 0 17.16 0 26 0 C26 8.58 26 17.16 26 26 C17.42 26 8.84 26 0 26 C0 17.42 0 8.84 0 0 Z " fill="#408CE0" transform="translate(66,224)"/>
<path d="M0 0 C8.58 0 17.16 0 26 0 C26 8.58 26 17.16 26 26 C17.42 26 8.84 26 0 26 C0 17.42 0 8.84 0 0 Z " fill="#408CE0" transform="translate(66,64)"/>
<path d="M0 0 C9.03789977 2.4732535 15.41537908 9.7399928 21 17 C19.67879172 19.93230193 18.25361803 21.98664899 15.9609375 24.234375 C15.38085938 24.80800781 14.80078125 25.38164062 14.203125 25.97265625 C13.59984375 26.55917969 12.9965625 27.14570313 12.375 27.75 C11.76398438 28.35199219 11.15296875 28.95398438 10.5234375 29.57421875 C9.02011376 31.05405305 7.51065144 32.52764676 6 34 C-2.13221412 31.64015408 -8.23079174 25.92304425 -13 19 C-12.8125 16.625 -12.8125 16.625 -12 15 C-11.34 15 -10.68 15 -10 15 C-9.9175 14.26136719 -9.835 13.52273437 -9.75 12.76171875 C-8.8387406 9.40619584 -7.53397797 8.15190466 -5 5.8125 C-2.10148878 3.2043457 -2.10148878 3.2043457 0 0 Z " fill="#408EE4" transform="translate(279,140)"/>
<path d="M0 0 C1.11568359 0.33837891 1.11568359 0.33837891 2.25390625 0.68359375 C2.25390625 1.34359375 2.25390625 2.00359375 2.25390625 2.68359375 C2.82882813 2.77769531 3.40375 2.87179688 3.99609375 2.96875 C6.76784397 3.84631106 8.2404206 5.1655584 10.37890625 7.12109375 C11.06210938 7.73855469 11.7453125 8.35601562 12.44921875 8.9921875 C13.73852004 10.20055862 15.00441464 11.43410214 16.25390625 12.68359375 C16.09475405 18.41307277 12.15468724 21.87914864 8.25 25.5859375 C2.7865767 30.50603693 2.7865767 30.50603693 -0.74609375 31.68359375 C-2.11148028 30.72782318 -3.440909 29.72006399 -4.74609375 28.68359375 C-5.5246875 28.39871094 -6.30328125 28.11382812 -7.10546875 27.8203125 C-10.06869026 26.54472454 -11.82989078 25.06572679 -14.12109375 22.80859375 C-14.83007812 22.13054688 -15.5390625 21.4525 -16.26953125 20.75390625 C-17.74609375 18.68359375 -17.74609375 18.68359375 -17.6328125 16.6640625 C-14.91039128 10.58358867 -7.28882539 -0.83982199 0 0 Z " fill="#408DE2" transform="translate(163.74609375,28.31640625)"/>
<path d="M0 0 C0.66 0 1.32 0 2 0 C2 3.96 2 7.92 2 12 C8.6 12 15.2 12 22 12 C22.495 27.345 22.495 27.345 23 43 C19.36804504 43 18.25286089 42.04546845 15.3125 40 C14.50425781 39.443125 13.69601563 38.88625 12.86328125 38.3125 C12.24839844 37.879375 11.63351563 37.44625 11 37 C10.38640625 37.30679688 9.7728125 37.61359375 9.140625 37.9296875 C6.0703125 39.46484375 6.0703125 39.46484375 3 41 C-0.24891122 36.66437107 -0.3992089 32.86266307 -0.29296875 27.63671875 C-0.28872391 26.84473587 -0.28447906 26.05275299 -0.28010559 25.23677063 C-0.26338163 22.71999373 -0.22574225 20.20403276 -0.1875 17.6875 C-0.17244499 15.97592307 -0.15875801 14.26433351 -0.14648438 12.55273438 C-0.11349885 8.36817767 -0.06176098 4.18422693 0 0 Z " fill="#04101A" transform="translate(152,218)"/>
<path d="M0 0 C8.58 0 17.16 0 26 0 C26 7.92 26 15.84 26 24 C17.42 24 8.84 24 0 24 C0 16.08 0 8.16 0 0 Z " fill="#4395ED" transform="translate(234,224)"/>
<path d="M0 0 C8.58 0 17.16 0 26 0 C26 7.92 26 15.84 26 24 C17.42 24 8.84 24 0 24 C0 16.08 0 8.16 0 0 Z " fill="#4496EF" transform="translate(234,66)"/>
<path d="M0 0 C1.23588867 0.0314209 2.47177734 0.0628418 3.74511719 0.09521484 C4.40533875 0.10370453 5.0655603 0.11219421 5.74578857 0.12094116 C7.84621272 0.15442384 9.94273765 0.22966713 12.04199219 0.30615234 C13.46901989 0.33625978 14.89610805 0.36363427 16.32324219 0.38818359 C19.81408392 0.45419017 23.30265729 0.55766409 26.79199219 0.68115234 C25.85001803 2.13728974 24.90229409 3.58970872 23.95214844 5.04052734 C23.16142944 6.25434082 23.16142944 6.25434082 22.35473633 7.49267578 C20.48257417 10.11446325 18.40080566 11.80815806 15.79199219 13.68115234 C14.94636719 14.54740234 14.10074219 15.41365234 13.22949219 16.30615234 C11.08980954 18.39097133 9.52116097 19.56926877 6.79199219 20.68115234 C6.79199219 21.34115234 6.79199219 22.00115234 6.79199219 22.68115234 C6.13199219 22.68115234 5.47199219 22.68115234 4.79199219 22.68115234 C4.45167969 23.82583984 4.45167969 23.82583984 4.10449219 24.99365234 C2.48222931 28.31542871 1.14543914 29.19939671 -2.20800781 30.68115234 C-3.87402996 30.72749849 -5.54218457 30.73416849 -7.20800781 30.68115234 C-7.32468995 26.80640778 -7.39542013 22.93211839 -7.45800781 19.05615234 C-7.49152344 17.96173828 -7.52503906 16.86732422 -7.55957031 15.73974609 C-7.57246094 14.67626953 -7.58535156 13.61279297 -7.59863281 12.51708984 C-7.61958008 11.54304199 -7.64052734 10.56899414 -7.66210938 9.56542969 C-6.8625799 4.48712796 -5.21427326 1.10714021 0 0 Z " fill="#235283" transform="translate(135.2080078125,171.31884765625)"/>
<path d="M0 0 C0.99 0.33 1.98 0.66 3 1 C2.67 1.66 2.34 2.32 2 3 C1.84693099 4.81171098 1.75053339 6.6283794 1.68359375 8.4453125 C1.64169922 9.52167969 1.59980469 10.59804687 1.55664062 11.70703125 C1.51732422 12.83496094 1.47800781 13.96289062 1.4375 15.125 C1.39431641 16.26066406 1.35113281 17.39632812 1.30664062 18.56640625 C1.2003396 21.37747768 1.09830595 24.18863945 1 27 C2.65 27 4.3 27 6 27 C2.63245108 31.31467205 -0.97327277 34.78744228 -5.140625 38.328125 C-7.38514437 40.34630628 -9.15978985 42.6145424 -11 45 C-14.22791555 47.1519437 -15.28400809 47.20086443 -19 47 C-17.03617993 45.49440461 -15.21736634 44.10868317 -13 43 C-13.66 42.34 -14.32 41.68 -15 41 C-15.22705078 38.56982422 -15.22705078 38.56982422 -15.1953125 35.5546875 C-15.18564453 33.94013672 -15.18564453 33.94013672 -15.17578125 32.29296875 C-15.15902344 31.16503906 -15.14226562 30.03710938 -15.125 28.875 C-15.11597656 27.73933594 -15.10695313 26.60367188 -15.09765625 25.43359375 C-15.07403098 22.62218701 -15.04109013 19.81119702 -15 17 C-16.65 17.66 -18.3 18.32 -20 19 C-14.84090526 11.01102208 -7.87030205 5.24686803 0 0 Z " fill="#112F4C" transform="translate(127,175)"/>
<path d="M0 0 C1.67739258 0.00966797 1.67739258 0.00966797 3.38867188 0.01953125 C5.13954102 0.04466797 5.13954102 0.04466797 6.92578125 0.0703125 C8.69405273 0.08384766 8.69405273 0.08384766 10.49804688 0.09765625 C13.41166151 0.12124827 16.32487017 0.1541671 19.23828125 0.1953125 C18.90828125 1.1853125 18.57828125 2.1753125 18.23828125 3.1953125 C18.14310335 5.11006794 18.10841548 7.02819916 18.11328125 8.9453125 C18.11070312 9.95078125 18.108125 10.95625 18.10546875 11.9921875 C18.24723223 15.41118917 18.75434594 18.80776531 19.23828125 22.1953125 C13.29828125 22.1953125 7.35828125 22.1953125 1.23828125 22.1953125 C1.23828125 21.5353125 1.23828125 20.8753125 1.23828125 20.1953125 C-2.06171875 20.1953125 -5.36171875 20.1953125 -8.76171875 20.1953125 C-8.84241533 17.23643791 -8.9020654 14.2797466 -8.94921875 11.3203125 C-8.97435547 10.47855469 -8.99949219 9.63679687 -9.02539062 8.76953125 C-9.03505859 7.96386719 -9.04472656 7.15820312 -9.0546875 6.328125 C-9.07039795 5.58449707 -9.0861084 4.84086914 -9.10229492 4.07470703 C-8.98990479 3.45450684 -8.87751465 2.83430664 -8.76171875 2.1953125 C-5.31537993 -0.10224672 -4.05103484 -0.04112726 0 0 Z " fill="#295F9B" transform="translate(110.76171875,145.8046875)"/>
<path d="M0 0 C9.55361617 -0.32569146 18.55402821 0.69710734 28 2 C28 7.94 28 13.88 28 20 C18.5310298 21.41592078 9.59933471 22.29137947 0 22 C0.08378906 20.74703125 0.16757813 19.4940625 0.25390625 18.203125 C0.35709509 16.55210357 0.45994178 14.90106073 0.5625 13.25 C0.61857422 12.425 0.67464844 11.6 0.73242188 10.75 C0.78076172 9.95078125 0.82910156 9.1515625 0.87890625 8.328125 C0.9260376 7.5949707 0.97316895 6.86181641 1.02172852 6.10644531 C0.99913793 3.91642774 0.61487456 2.09512813 0 0 Z " fill="#2E68A9" transform="translate(198,146)"/>
<path d="M0 0 C6.6 0 13.2 0 20 0 C20 5.94 20 11.88 20 18 C13.4 18 6.8 18 0 18 C0.33 19.65 0.66 21.3 1 23 C1.20482892 24.91010965 1.38155385 26.82337131 1.53515625 28.73828125 C1.62216797 29.80498047 1.70917969 30.87167969 1.79882812 31.97070312 C1.88583984 33.07349609 1.97285156 34.17628906 2.0625 35.3125 C2.15337891 36.43462891 2.24425781 37.55675781 2.33789062 38.71289062 C2.561215 41.47506047 2.78182631 44.23741934 3 47 C0.525 47.495 0.525 47.495 -2 48 C-2.57733454 37.19493849 -3.10256024 26.38306081 -3.25 15.5625 C-3.27126953 14.80155029 -3.29253906 14.04060059 -3.31445312 13.2565918 C-3.31896484 12.53383057 -3.32347656 11.81106934 -3.328125 11.06640625 C-3.3374707 10.44709229 -3.34681641 9.82777832 -3.35644531 9.18969727 C-3 7 -3 7 0 0 Z " fill="#235386" transform="translate(154,76)"/>
<path d="M0 0 C4.38717458 1.60002838 6.9357172 3.41041158 10 7 C10 7.99 10 8.98 10 10 C11.32 10.33 12.64 10.66 14 11 C14 20.9 14 30.8 14 41 C12.02 39.68 10.04 38.36 8 37 C8 36.34 8 35.68 8 35 C7.46375 34.773125 6.9275 34.54625 6.375 34.3125 C0.08504337 30.83647133 0.08504337 30.83647133 -2 28 C-2.79680253 24.62732721 -2.36235605 21.42179402 -2 18 C-1.92652344 17.26797363 -1.85304688 16.53594727 -1.77734375 15.78173828 C-1.24469636 10.51339062 -0.64127472 5.25616247 0 0 Z " fill="#153556" transform="translate(114,97)"/>
<path d="M0 0 C10.94367351 4.86385489 10.94367351 4.86385489 14 9 C14.56762695 12.13793945 14.56762695 12.13793945 14.48828125 15.61328125 C14.47216797 16.86044922 14.45605469 18.10761719 14.43945312 19.39257812 C14.39755859 20.68615234 14.35566406 21.97972656 14.3125 23.3125 C14.28994141 24.62541016 14.26738281 25.93832031 14.24414062 27.29101562 C14.18527725 30.5285013 14.10308804 33.76367 14 37 C8.99361387 36.31476838 6.03681615 35.11935794 2 32 C1.34 31.01 0.68 30.02 0 29 C-0.99 28.67 -1.98 28.34 -3 28 C-3.33 26.35 -3.66 24.7 -4 23 C-2.68 23.33 -1.36 23.66 0 24 C0 16.08 0 8.16 0 0 Z " fill="#0E2843" transform="translate(210,188)"/>
<path d="M0 0 C8.58 0 17.16 0 26 0 C22 2 22 2 20 2 C20 7.94 20 13.88 20 20 C21.98 20.33 23.96 20.66 26 21 C26 21.33 26 21.66 26 22 C16.76 22 7.52 22 -2 22 C-0.78448697 15.92243483 0.61159164 15.0149268 5 11 C3.47291037 7.56404834 1.40072955 4.88087546 -1 2 C-0.67 1.34 -0.34 0.68 0 0 Z " fill="#040F19" transform="translate(56,146)"/>
<path d="M0 0 C0.66 0 1.32 0 2 0 C2 7.92 2 15.84 2 24 C-7.875 24.375 -7.875 24.375 -10.98388672 24.47802734 C-11.79100098 24.5136377 -12.59811523 24.54924805 -13.4296875 24.5859375 C-14.25710449 24.6173584 -15.08452148 24.6487793 -15.93701172 24.68115234 C-18.21986085 24.82599137 -18.21986085 24.82599137 -20 27 C-20.10871967 24.45716766 -20.18762401 21.91904912 -20.25 19.375 C-20.28351563 18.66214844 -20.31703125 17.94929688 -20.3515625 17.21484375 C-20.44677981 12.02550009 -19.49021217 9.08028401 -16 5 C-15.01 4.67 -14.02 4.34 -13 4 C-10.8125 5.4375 -10.8125 5.4375 -9 7 C-6.12018877 5.82674357 -4.62061333 4.62061333 -2.375 2.375 C-1.59125 1.59125 -0.8075 0.8075 0 0 Z " fill="#0C233A" transform="translate(172,52)"/>
<path d="M0 0 C5.4897464 1.71456263 10.35719384 3.35384028 14 8 C14.85973626 12.06983064 14.41844102 15.88691499 14 20 C13.9278125 21.24910156 13.855625 22.49820313 13.78125 23.78515625 C13.22958385 33.31124844 13.22958385 33.31124844 12 37 C7.98491941 35.62340094 5.01542079 34.01542079 2 31 C-0.52773778 24.62419405 -0.22960139 18.34147497 -0.125 11.5625 C-0.11597656 10.44939453 -0.10695312 9.33628906 -0.09765625 8.18945312 C-0.0742224 5.45940977 -0.041414 2.7298199 0 0 Z " fill="#3476BD" transform="translate(176,156)"/>
<path d="M0 0 C4.58328022 -0.05802751 9.16646604 -0.09360593 13.75 -0.125 C15.05195313 -0.14175781 16.35390625 -0.15851563 17.6953125 -0.17578125 C18.94570312 -0.18222656 20.19609375 -0.18867188 21.484375 -0.1953125 C22.63647461 -0.20578613 23.78857422 -0.21625977 24.97558594 -0.22705078 C28 0 28 0 32 2 C32 7.94 32 13.88 32 20 C27.1245175 21.62516083 24.78537664 22.24521007 19.9453125 22.1953125 C18.83671875 22.18886719 17.728125 22.18242187 16.5859375 22.17578125 C15.44382813 22.15902344 14.30171875 22.14226562 13.125 22.125 C11.9596875 22.11597656 10.794375 22.10695312 9.59375 22.09765625 C6.72895423 22.07417432 3.86458465 22.04133141 1 22 C1 21.67 1 21.34 1 21 C6.24896818 19.92328858 10.39122202 20 16 20 C16 14.06 16 8.12 16 2 C10.72 1.67 5.44 1.34 0 1 C0 0.67 0 0.34 0 0 Z " fill="#183C62" transform="translate(210,146)"/>
<path d="M0 0 C0 6.6 0 13.2 0 20 C-6.6 20 -13.2 20 -20 20 C-20 14.06 -20 8.12 -20 2 C-16.16375 1.505 -16.16375 1.505 -12.25 1 C-11.45110352 0.89558594 -10.65220703 0.79117188 -9.82910156 0.68359375 C-6.510522 0.26229297 -3.35141526 0 0 0 Z " fill="#397FCB" transform="translate(174,190)"/>
<path d="M0 0 C9.94791861 8.52678738 9.94791861 8.52678738 10.34057617 12.09448242 C10.32486572 13.33560791 10.30915527 14.5767334 10.29296875 15.85546875 C10.28872391 16.51710526 10.28447906 17.17874176 10.28010559 17.86042786 C10.26333693 19.9698691 10.22569099 22.07834846 10.1875 24.1875 C10.17245068 25.61912681 10.1587627 27.05076862 10.14648438 28.48242188 C10.1134403 31.98859288 10.06167167 35.49420254 10 39 C8.22337883 37.92618483 6.45390311 36.840542 4.6875 35.75 C3.70136719 35.14671875 2.71523437 34.5434375 1.69921875 33.921875 C-0.82922888 32.12159102 -2.326533 30.58159415 -4 28 C-3.34 28 -2.68 28 -2 28 C-2 27.34 -2 26.68 -2 26 C-1.34 26 -0.68 26 0 26 C0 17.42 0 8.84 0 0 Z " fill="#081C2F" transform="translate(224,199)"/>
<path d="M0 0 C0.66 0 1.32 0 2 0 C2 3.96 2 7.92 2 12 C8.6 12 15.2 12 22 12 C22 16.62 22 21.24 22 26 C19.2705414 25.85856168 16.54151877 25.71200471 13.8125 25.5625 C13.04357422 25.52318359 12.27464844 25.48386719 11.48242188 25.44335938 C10.73154297 25.40146484 9.98066406 25.35957031 9.20703125 25.31640625 C8.5210083 25.27974854 7.83498535 25.24309082 7.12817383 25.20532227 C4.72952425 24.973905 2.36299064 24.47259813 0 24 C0 16.08 0 8.16 0 0 Z " fill="#081A2B" transform="translate(152,218)"/>
<path d="M0 0 C7.92 0 15.84 0 24 0 C17.47540984 9.78688525 17.47540984 9.78688525 13 13 C12.154375 13.845625 11.30875 14.69125 10.4375 15.5625 C8.3737282 17.6262718 6.43651702 19.40366126 4 21 C3.34 21 2.68 21 2 21 C1.34 14.07 0.68 7.14 0 0 Z " fill="#2C639F" transform="translate(138,172)"/>
<path d="M0 0 C3.07792716 1.74693163 5.56068493 3.44452707 8 6 C8.66 6.33 9.32 6.66 10 7 C10 15.91 10 24.82 10 34 C1 32 1 32 -2 30 C-2 28.68 -2 27.36 -2 26 C-0.68 26 0.64 26 2 26 C1.855625 24.7934375 1.71125 23.586875 1.5625 22.34375 C1.37476098 20.72919444 1.18727446 19.11460951 1 17.5 C0.85691406 16.31277344 0.85691406 16.31277344 0.7109375 15.1015625 C0.12892118 10.02970596 -0.09367085 5.10506141 0 0 Z " fill="#21507F" transform="translate(200,178)"/>
<path d="M0 0 C0 5.61 0 11.22 0 17 C-7.01489104 20.50744552 -14.30675534 20.14188361 -22 20 C-18.39792166 14.93761962 -14.54340593 10.1581057 -10.4375 5.5 C-9.97883545 4.95956055 -9.5201709 4.41912109 -9.04760742 3.86230469 C-5.74389587 0.18428682 -5.29235023 0 0 0 Z " fill="#2A609D" transform="translate(180,128)"/>
<path d="M0 0 C0.99 0.33 1.98 0.66 3 1 C2.67 1.66 2.34 2.32 2 3 C1.84693099 4.81171098 1.75053339 6.6283794 1.68359375 8.4453125 C1.64169922 9.52167969 1.59980469 10.59804687 1.55664062 11.70703125 C1.49766602 13.39892578 1.49766602 13.39892578 1.4375 15.125 C1.39431641 16.26066406 1.35113281 17.39632812 1.30664062 18.56640625 C1.2003396 21.37747768 1.09830595 24.18863945 1 27 C2.65 27 4.3 27 6 27 C3.21306321 30.65785454 0.53265828 33.48942827 -3.1875 36.2109375 C-3.90292969 36.7373584 -4.61835937 37.2637793 -5.35546875 37.80615234 C-5.89816406 38.20012207 -6.44085938 38.5940918 -7 39 C-7.08692074 34.72929442 -7.14036515 30.45881542 -7.1875 26.1875 C-7.21263672 24.97255859 -7.23777344 23.75761719 -7.26367188 22.50585938 C-7.27333984 21.34248047 -7.28300781 20.17910156 -7.29296875 18.98046875 C-7.3086792 17.90692139 -7.32438965 16.83337402 -7.34057617 15.72729492 C-6.95376762 12.62977639 -6.33598857 11.93675514 -4 10 C-3.53846632 8.0211909 -3.53846632 8.0211909 -3.5 5.9375 C-3.335 4.638125 -3.17 3.33875 -3 2 C-2.01 1.34 -1.02 0.68 0 0 Z " fill="#0D263E" transform="translate(127,175)"/>
<path d="M0 0 C3.3 0 6.6 0 10 0 C10 5.94 10 11.88 10 18 C13.3 18 16.6 18 20 18 C20 18.66 20 19.32 20 20 C17.41638482 20.05407567 14.83390745 20.093707 12.25 20.125 C11.52039063 20.14175781 10.79078125 20.15851563 10.0390625 20.17578125 C5.86478602 20.21372922 3.83029454 19.91514727 0 18 C0 12.06 0 6.12 0 0 Z " fill="#1D4773" transform="translate(92,148)"/>
<path d="M0 0 C3.465 1.485 3.465 1.485 7 3 C7 4.32 7 5.64 7 7 C8.32 7 9.64 7 11 7 C10.69191406 7.53109375 10.38382813 8.0621875 10.06640625 8.609375 C8.77935954 11.49462256 8.37838354 14.12306131 7.9375 17.25 C7.69193359 18.96509766 7.69193359 18.96509766 7.44140625 20.71484375 C6.93626815 24.47432289 6.44321145 28.2327027 6 32 C4.515 32.495 4.515 32.495 3 33 C0.15356205 28.99134862 -0.35985037 26.26907715 -0.29296875 21.38671875 C-0.28330078 20.13955078 -0.27363281 18.89238281 -0.26367188 17.60742188 C-0.2259668 15.66706055 -0.2259668 15.66706055 -0.1875 13.6875 C-0.17396484 12.37458984 -0.16042969 11.06167969 -0.14648438 9.70898438 C-0.11117443 6.47223923 -0.0618528 3.23632895 0 0 Z " fill="#2B639F" transform="translate(132,114)"/>
<path d="M0 0 C6.6 0 13.2 0 20 0 C20 3.3 20 6.6 20 10 C13.4 10 6.8 10 0 10 C0 6.7 0 3.4 0 0 Z " fill="#183B5D" transform="translate(154,220)"/>
<path d="M0 0 C3.3 0 6.6 0 10 0 C10.66 5.94 11.32 11.88 12 18 C8.04 18 4.08 18 0 18 C0 12.06 0 6.12 0 0 Z " fill="#377CC6" transform="translate(114,148)"/>
<path d="M0 0 C2.4375 1.125 2.4375 1.125 5 3 C6.59193344 8.76128292 6.10996445 14.94559507 6.0625 20.875 C6.05798828 21.94492188 6.05347656 23.01484375 6.04882812 24.1171875 C6.03709749 26.74484986 6.02068228 29.37239538 6 32 C3.36 30.68 0.72 29.36 -2 28 C-1.85797397 24.8331218 -1.71148806 21.66655215 -1.5625 18.5 C-1.52318359 17.613125 -1.48386719 16.72625 -1.44335938 15.8125 C-1.18915913 10.49384873 -0.73323663 5.2743744 0 0 Z " fill="#2E68A7" transform="translate(190,168)"/>
<path d="M0 0 C5 3 5 3 6 4 C6.08748207 5.92667507 6.10697334 7.85651861 6.09765625 9.78515625 C6.09443359 10.95498047 6.09121094 12.12480469 6.08789062 13.33007812 C6.07951172 14.56177734 6.07113281 15.79347656 6.0625 17.0625 C6.05798828 18.29806641 6.05347656 19.53363281 6.04882812 20.80664062 C6.03699608 23.87114117 6.02051173 26.93554721 6 30 C1.545 29.01 1.545 29.01 -3 28 C-3.33 26.35 -3.66 24.7 -4 23 C-2.68 23.33 -1.36 23.66 0 24 C0 16.08 0 8.16 0 0 Z " fill="#173B5E" transform="translate(210,188)"/>
<path d="M0 0 C3.40312738 1.05875074 6.01353231 2.00902154 9 4 C8.67 4.66 8.34 5.32 8 6 C7.34 5.67 6.68 5.34 6 5 C6 14.24 6 23.48 6 33 C2 31 2 31 0.7578125 28.15234375 C-0.52474355 22.71627925 -0.21059909 17.1099794 -0.125 11.5625 C-0.11597656 10.44939453 -0.10695312 9.33628906 -0.09765625 8.18945312 C-0.0742224 5.45940977 -0.041414 2.7298199 0 0 Z " fill="#397ECB" transform="translate(176,156)"/>
<path d="M0 0 C3.3 0 6.6 0 10 0 C10 5.94 10 11.88 10 18 C6.7 18 3.4 18 0 18 C0 12.06 0 6.12 0 0 Z " fill="#3B83D1" transform="translate(200,148)"/>
<path d="M0 0 C3.10408807 -0.05807043 6.2080364 -0.09361914 9.3125 -0.125 C10.19357422 -0.14175781 11.07464844 -0.15851563 11.98242188 -0.17578125 C12.82998047 -0.18222656 13.67753906 -0.18867188 14.55078125 -0.1953125 C15.72120972 -0.21102295 15.72120972 -0.21102295 16.9152832 -0.22705078 C19 0 19 0 22 2 C22.34057617 3.97119141 22.34057617 3.97119141 22.29296875 6.3515625 C22.28330078 7.20234375 22.27363281 8.053125 22.26367188 8.9296875 C22.23853516 9.81914062 22.21339844 10.70859375 22.1875 11.625 C22.16719727 12.97078125 22.16719727 12.97078125 22.14648438 14.34375 C22.11106925 16.56309789 22.06168461 18.78125188 22 21 C22.66 21.33 23.32 21.66 24 22 C16.41 22 8.82 22 1 22 C1 21.67 1 21.34 1 21 C6.24896818 19.92328858 10.39122202 20 16 20 C16 14.06 16 8.12 16 2 C10.72 1.67 5.44 1.34 0 1 C0 0.67 0 0.34 0 0 Z " fill="#204C7B" transform="translate(210,146)"/>
<path d="M0 0 C5.94 0.99 5.94 0.99 12 2 C12.02689449 4.95839355 12.04678741 7.91654427 12.0625 10.875 C12.07087891 11.71675781 12.07925781 12.55851563 12.08789062 13.42578125 C12.09111328 14.23144531 12.09433594 15.03710938 12.09765625 15.8671875 C12.10289307 16.61081543 12.10812988 17.35444336 12.11352539 18.12060547 C12 20 12 20 11 22 C6.71 22 2.42 22 -2 22 C2 20 2 20 4 20 C4 14.06 4 8.12 4 2 C2.68 1.34 1.36 0.68 0 0 Z " fill="#0F2A46" transform="translate(238,146)"/>
<path d="M0 0 C3.60271909 0.97370786 4.79777091 1.6899154 6.875 4.875 C7.98579669 7.96054636 8.24791579 9.05038085 7 12 C4.03 11.505 4.03 11.505 1 11 C0.34 16.28 -0.32 21.56 -1 27 C-2.32 26.34 -3.64 25.68 -5 25 C-5.63877774 6.15605675 -5.63877774 6.15605675 -1.42578125 1.1171875 C-0.95527344 0.74851562 -0.48476562 0.37984375 0 0 Z " fill="#306CAE" transform="translate(143,122)"/>
<path d="M0 0 C-1.32 0.33 -2.64 0.66 -4 1 C-4 6.94 -4 12.88 -4 19 C-3.34 19.33 -2.68 19.66 -2 20 C-9.75 20.125 -9.75 20.125 -12 19 C-12 13.06 -12 7.12 -12 1 C-6.52128397 -0.82623868 -5.17557837 -1.23228056 0 0 Z " fill="#0E273F" transform="translate(88,147)"/>
<path d="M0 0 C5.61 0 11.22 0 17 0 C16.69287818 3.47972004 16.37957361 6.9586853 16.0625 10.4375 C15.93198242 11.92733398 15.93198242 11.92733398 15.79882812 13.44726562 C15.66831055 14.86362305 15.66831055 14.86362305 15.53515625 16.30859375 C15.456604 17.18314209 15.37805176 18.05769043 15.29711914 18.95874023 C15 21 15 21 14 22 C12.02 22 10.04 22 8 22 C8.33 15.4 8.66 8.8 9 2 C6.03 1.67 3.06 1.34 0 1 C0 0.67 0 0.34 0 0 Z " fill="#091D31" transform="translate(241,146)"/>
<path d="M0 0 C6.6 0 13.2 0 20 0 C20 2.64 20 5.28 20 8 C13.4 8 6.8 8 0 8 C0 5.36 0 2.72 0 0 Z " fill="#2F69A8" transform="translate(154,202)"/>
<path d="M0 0 C6.6 0 13.2 0 20 0 C20 2.64 20 5.28 20 8 C13.4 8 6.8 8 0 8 C0 5.36 0 2.72 0 0 Z " fill="#3271B4" transform="translate(154,86)"/>
<path d="M0 0 C6.6 0 13.2 0 20 0 C20 2.64 20 5.28 20 8 C13.4 8 6.8 8 0 8 C0 5.36 0 2.72 0 0 Z " fill="#163859" transform="translate(154,68)"/>
<path d="M0 0 C0.66 0 1.32 0 2 0 C2 3.96 2 7.92 2 12 C8.6 12 15.2 12 22 12 C22 13.98 22 15.96 22 18 C18.70835171 18.02895225 15.41673601 18.0467823 12.125 18.0625 C11.18785156 18.07087891 10.25070313 18.07925781 9.28515625 18.08789062 C7.94130859 18.09272461 7.94130859 18.09272461 6.5703125 18.09765625 C5.32918701 18.10551147 5.32918701 18.10551147 4.06298828 18.11352539 C2 18 2 18 0 17 C0 11.39 0 5.78 0 0 Z " fill="#0E2741" transform="translate(152,218)"/>
<path d="M0 0 C1.32 0.33 2.64 0.66 4 1 C4 10.9 4 20.8 4 31 C-2 27 -2 27 -2.62109375 24.9140625 C-2.56050781 24.15867188 -2.49992187 23.40328125 -2.4375 22.625 C-2.38335937 21.76003906 -2.32921875 20.89507812 -2.2734375 20.00390625 C-2.18320313 19.01261719 -2.09296875 18.02132812 -2 17 C-1.93039063 15.79214844 -1.86078125 14.58429688 -1.7890625 13.33984375 C-1.20594262 3.61782787 -1.20594262 3.61782787 0 0 Z " fill="#1E4975" transform="translate(124,107)"/>
<path d="M0 0 C5 1 5 1 6 2 C6.02882228 3.39713179 5.98683789 4.79587348 5.9140625 6.19140625 C5.84832031 7.48594727 5.84832031 7.48594727 5.78125 8.80664062 C5.7296875 9.71607422 5.678125 10.62550781 5.625 11.5625 C5.58117187 12.44486328 5.53734375 13.32722656 5.4921875 14.23632812 C5.21034287 19.5326584 4.72344747 24.74580949 4 30 C2.68 29.34 1.36 28.68 0 28 C0 18.76 0 9.52 0 0 Z " fill="#193F66" transform="translate(118,102)"/>
<path d="M0 0 C3.96 0 7.92 0 12 0 C8 2 8 2 6 2 C6 7.94 6 13.88 6 20 C7.98 20.33 9.96 20.66 12 21 C12 21.33 12 21.66 12 22 C10.56208484 21.85831863 9.1246763 21.71148957 7.6875 21.5625 C6.88699219 21.48128906 6.08648437 21.40007812 5.26171875 21.31640625 C3 21 3 21 0 20 C0 13.4 0 6.8 0 0 Z " fill="#07192B" transform="translate(70,146)"/>
<path d="M0 0 C4.0084034 2.0042017 5.41409657 3.49055963 8 7 C7.01 7 6.02 7 5 7 C4.17162875 9.99791501 3.74797203 12.88883919 3.46484375 15.984375 C3.37783203 16.91894531 3.29082031 17.85351562 3.20117188 18.81640625 C3.11416016 19.78449219 3.02714844 20.75257812 2.9375 21.75 C2.80118164 23.22533203 2.80118164 23.22533203 2.66210938 24.73046875 C2.43863463 27.15340547 2.21803267 29.57656851 2 32 C0.35 31.01 -1.3 30.02 -3 29 C-2.01 19.43 -1.02 9.86 0 0 Z " fill="#102B47" transform="translate(110,91)"/>
<path d="M0 0 C2.31 1.98 4.62 3.96 7 6 C6.01 6.495 6.01 6.495 5 7 C4.67 15.91 4.34 24.82 4 34 C2.35 33.01 0.7 32.02 -1 31 C-0.67 20.77 -0.34 10.54 0 0 Z " fill="#0D243D" transform="translate(128,108)"/>
<path d="M0 0 C2.475 0.99 2.475 0.99 5 2 C5 10.91 5 19.82 5 29 C-4 27 -4 27 -6 25 C-1.25 23.875 -1.25 23.875 1 25 C0.67 16.75 0.34 8.5 0 0 Z " fill="#1D4670" transform="translate(205,183)"/>
<path d="M0 0 C1.32 0.66 2.64 1.32 4 2 C4 10.58 4 19.16 4 28 C1.69 27.67 -0.62 27.34 -3 27 C-4.4375 24.9375 -4.4375 24.9375 -5 23 C-3.35 23.33 -1.7 23.66 0 24 C0 16.08 0 8.16 0 0 Z " fill="#12304E" transform="translate(216,194)"/>
<path d="M0 0 C3.51168797 1.75584399 6.18372522 3.53020532 9.25 5.9375 C10.14203125 6.62714844 11.0340625 7.31679687 11.953125 8.02734375 C12.62859375 8.67832031 13.3040625 9.32929688 14 10 C14 10.99 14 11.98 14 13 C9.38 13 4.76 13 0 13 C0 8.71 0 4.42 0 0 Z " fill="#030E18" transform="translate(234,211)"/>
<path d="M0 0 C1.98 0 3.96 0 6 0 C6 5.94 6 11.88 6 18 C4.02 18 2.04 18 0 18 C0 12.06 0 6.12 0 0 Z " fill="#275B91" transform="translate(220,148)"/>
<path d="M0 0 C3.465 1.485 3.465 1.485 7 3 C7 4.32 7 5.64 7 7 C6.01 7 5.02 7 4 7 C3.34 14.26 2.68 21.52 2 29 C1.34 28.67 0.68 28.34 0 28 C0 18.76 0 9.52 0 0 Z " fill="#275A91" transform="translate(132,114)"/>
<path d="M0 0 C3.96 0 7.92 0 12 0 C6.125 8.875 6.125 8.875 5 10 C3.35 10 1.7 10 0 10 C0 6.7 0 3.4 0 0 Z " fill="#3678C1" transform="translate(150,172)"/>
<path d="M0 0 C0.33 0 0.66 0 1 0 C1 3.63 1 7.26 1 11 C3.31 11 5.62 11 8 11 C8 11.66 8 12.32 8 13 C5.03 13 2.06 13 -1 13 C-0.67 8.71 -0.34 4.42 0 0 Z " fill="#295D99" transform="translate(199,155)"/>
</svg>
